<svg width="365" height="178" viewBox="0 0 365 178" fill="none" xmlns="http://www.w3.org/2000/svg">
<g clip-path="url(#clip0_416_14)">
<path d="M572.096 240.881C576.377 223.076 574.085 202.603 558.55 189.865C537.782 172.835 503.663 176.423 476.658 167.318C446.291 157.068 427.491 131.573 415.134 106.268C402.766 80.9626 394.366 53.7911 375.102 31.6861C355.837 9.58112 321.253 -6.51083 290.367 2.5944C257.318 12.3397 242.432 45.5513 211.502 59.3083C168.183 78.5826 113.729 52.7453 66.2915 63.3471C36.1185 70.0993 12.3672 91.8978 3.90239 116.978C-4.56246 142.058 1.25374 169.671 16.4213 192.443C31.5888 215.224 55.5131 233.399 82.3887 246.687C107.264 258.983 136.68 267.503 164.983 262.526C188.54 258.388 209.329 245.263 233.34 243.847C255.448 242.54 276.648 251.456 294.507 262.4C312.367 273.336 328.291 286.543 347.361 295.954C363.404 303.87 382.972 309.143 401.707 306.15C421.199 303.04 434.161 288.932 453.036 284.983C465.891 282.297 476.204 286.858 488.215 289.815C504.766 293.89 523.101 293.367 538.236 285.885C557.274 276.473 567.879 258.398 572.096 240.863L572.096 240.881Z" fill="#E27FB4"/>
</g>
<defs>
<clipPath id="clip0_416_14">
<rect width="365" height="178" fill="white"/>
</clipPath>
</defs>
</svg>
