<svg width="542" height="256" viewBox="0 0 542 256" fill="none" xmlns="http://www.w3.org/2000/svg">
<g clip-path="url(#clip0_316_533)">
<path d="M322.91 156.973C270.975 174.288 227.226 210.095 176.867 231.563C126.509 253.03 60.679 256.351 23.877 215.832C-4.77806 184.285 -6.06442 134.527 11.6371 95.7621C42.8216 27.4722 130.731 -8.56925 200.901 18.1631C230.409 29.4076 255.807 49.7534 285.432 60.6819C354.48 86.1543 430.211 56.5253 499.029 30.4381C567.847 4.35094 648.71 -17.558 711.763 20.3929C777.77 60.119 791.565 164.416 738.157 219.928C681.007 279.329 590.464 257.97 535.25 209.199C473.548 154.7 406.879 128.976 322.906 156.973H322.91Z" fill="#EB5F5B"/>
</g>
<defs>
<clipPath id="clip0_316_533">
<rect width="542" height="256" fill="white"/>
</clipPath>
</defs>
</svg>
