<svg width="42" height="42" viewBox="0 0 42 42" fill="none" xmlns="http://www.w3.org/2000/svg">
<path d="M40.8572 20.2071C41.5876 20.9877 41.5876 22.2123 40.8572 22.9929L29.8664 34.7687L27.1967 37.4729C23.6053 41.1107 17.7876 41.1107 14.1962 37.4729C11.6827 34.9269 10.9271 31.2737 11.9345 28.0645C12.3425 26.7685 11.3653 25.4521 10.0205 25.4521H4.4092C2.27853 25.447 0.701936 23.6817 0.606233 21.6C0.515566 19.5183 2.41957 17.7478 4.40416 17.7478H10.0205C11.3653 17.7478 12.3375 16.4315 11.9345 15.1355C10.9271 11.9263 11.6827 8.2731 14.1962 5.72711C17.7876 2.08925 23.6053 2.08925 27.1967 5.72711L29.8664 8.43126L40.8572 20.2122V20.2071Z" fill="#102366"/>
</svg>
