<svg width="1440" height="768" viewBox="0 0 1440 768" fill="none" xmlns="http://www.w3.org/2000/svg">
<g clip-path="url(#clip0_316_524)">
<path d="M422.823 -404.342C622.184 -410.381 834.5 -340.299 1022.75 -227.612C1030.08 -223.224 1037.39 -218.78 1044.7 -214.285C1145.48 -152.346 1250.62 -65.5454 1303.56 68.8749C1350.05 186.957 1306.34 323.527 1219.19 366.778C1161.08 395.616 1093.21 383.641 1028.65 383.658C964.089 383.691 894.019 401.473 861.699 469.598C836.389 522.933 839.538 597.245 810.756 647.23C761.673 732.487 652.385 701.541 572.217 646.011C499.917 595.916 420.591 522.004 339.036 528.396C247.688 535.561 203.112 635.648 141.51 702.651C-48.7144 909.525 -185.115 568.276 -207.543 328.96C-222.447 169.887 -188.49 8.56168 -113.059 -104.458C24.4134 -310.48 216.686 -398.094 422.823 -404.342Z" fill="#E27FB4"/>
</g>
<defs>
<clipPath id="clip0_316_524">
<rect width="1440" height="768" fill="white"/>
</clipPath>
</defs>
</svg>
