<svg width="423" height="207" viewBox="0 0 423 207" fill="none" xmlns="http://www.w3.org/2000/svg">
<g clip-path="url(#clip0_316_528)">
<path d="M1.82463 -23.681C-2.27744 -6.63016 -0.0813503 12.9762 14.8042 25.1751C34.7034 41.4834 67.3956 38.0474 93.2718 46.767C122.37 56.5831 140.384 80.9982 152.224 105.232C164.074 129.466 172.123 155.487 190.582 176.656C209.041 197.825 242.179 213.235 271.774 204.515C303.441 195.183 317.705 163.378 347.341 150.203C388.849 131.745 441.026 156.488 486.48 146.335C515.392 139.869 538.15 118.994 546.261 94.9756C554.372 70.9576 548.799 44.5137 534.265 22.7059C519.732 0.889484 496.808 -16.5153 471.056 -29.2409C447.221 -41.0167 419.034 -49.1752 391.915 -44.4096C369.343 -40.4469 349.423 -27.8768 326.417 -26.5214C305.233 -25.2695 284.919 -33.8079 267.807 -44.2888C250.694 -54.761 235.436 -67.4089 217.163 -76.4221C201.79 -84.0021 183.041 -89.0526 165.089 -86.1864C146.412 -83.2079 133.992 -69.6967 115.906 -65.9153C103.589 -63.3426 93.7069 -67.711 82.1983 -70.5428C66.339 -74.445 48.7706 -73.9443 34.2683 -66.7786C16.0265 -57.7654 5.86455 -40.4556 1.82463 -23.6637V-23.681Z" fill="#102366"/>
</g>
<defs>
<clipPath id="clip0_316_528">
<rect width="423" height="207" fill="white"/>
</clipPath>
</defs>
</svg>
