<svg width="1440" height="182" viewBox="0 0 1440 182" fill="none" xmlns="http://www.w3.org/2000/svg">
<g clip-path="url(#clip0_346_104)">
<path d="M-152.368 215.345C203.324 30.9173 648.715 -26.9687 1087.6 13.23C1104.71 14.7898 1121.81 16.473 1138.96 18.2499C1375.32 42.689 1641.22 108.343 1854.04 305.647C2040.98 478.974 2080.69 764.277 1960.55 918.423C1880.43 1021.21 1747.12 1058.6 1630.25 1114.81C1513.4 1171.05 1402.01 1264.22 1402.78 1415.69C1403.37 1534.28 1473.74 1666.09 1465.13 1781.63C1450.46 1978.71 1225.66 2017.79 1032.19 1987.02C857.695 1959.24 649.752 1894.45 507.657 1977C348.506 2069.47 354.903 2289.47 301.681 2464.39C137.31 3004.48 -406.622 2505.35 -655.494 2091.58C-820.912 1816.55 -899.828 1494.92 -861.615 1224.65C-792.011 732.003 -520.145 406.05 -152.368 215.345Z" fill="#102366"/>
</g>
<defs>
<clipPath id="clip0_346_104">
<rect width="1440" height="182" fill="white"/>
</clipPath>
</defs>
</svg>
