<svg width="317" height="105" viewBox="0 0 317 105" fill="none" xmlns="http://www.w3.org/2000/svg">
<g clip-path="url(#clip0_331_574)">
<path d="M373.22 89.74C373.761 103.271 369.955 118.12 358.937 125.974C344.202 136.479 323.697 130.496 306.067 134.562C286.237 139.136 271.727 156.065 261.181 173.484C250.634 190.904 242.297 210.086 227.895 224.474C213.493 238.861 190.398 247.324 172.516 237.593C153.385 227.186 148.145 201.275 130.787 188.119C106.471 169.687 70.0458 183.383 42.197 170.931C24.4779 163.005 12.4678 144.626 10.2081 125.333C7.94837 106.041 14.7526 86.2837 26.7223 70.9976C38.6952 55.714 55.494 44.674 73.5335 37.5231C90.2325 30.9004 109.272 27.5102 126.048 33.9447C140.01 39.2993 151.225 50.9939 165.789 54.3898C179.194 57.5155 193.245 53.0244 205.481 46.7214C217.718 40.4184 229.029 32.2515 241.829 27.1935C252.596 22.9391 265.219 20.9705 276.357 25.0055C287.946 29.2023 294.246 40.8606 305.361 45.6119C312.929 48.8469 319.79 46.4974 327.507 45.4948C338.139 44.1161 349.317 46.2931 357.728 53.284C368.304 62.0747 372.688 76.4228 373.223 89.7425L373.22 89.74Z" fill="#102366"/>
</g>
<defs>
<clipPath id="clip0_331_574">
<rect width="317" height="105" fill="white"/>
</clipPath>
</defs>
</svg>
