<svg width="361" height="164" viewBox="0 0 361 164" fill="none" xmlns="http://www.w3.org/2000/svg">
<g clip-path="url(#clip0_369_156)">
<g clip-path="url(#clip1_369_156)">
<path d="M97.2139 295.441C51.6038 270.918 12.9603 227.602 -14.7414 177.832C-15.8216 175.893 -16.8887 173.945 -17.9488 171.986C-32.5699 144.979 -44.945 111.817 -39.4011 74.7279C-34.5298 42.1472 -6.97593 17.121 18.232 18.711C35.0424 19.7726 48.7491 31.2757 63.2677 39.6529C77.7876 48.0261 95.8508 53.1251 111.96 42.0063C124.573 33.3022 133.51 16.188 146.469 8.68789C168.57 -4.10615 189.127 17.038 199.946 39.9283C209.701 60.5755 217.945 87.4887 237.112 96.6391C258.581 106.887 281.594 90.174 304.142 83.1088C373.764 61.2979 360.143 155.718 334.126 212.428C316.831 250.122 288.258 281.98 256.628 297.594C198.978 326.062 144.375 320.797 97.2139 295.441Z" fill="#EB5F5B"/>
</g>
</g>
<defs>
<clipPath id="clip0_369_156">
<rect width="361" height="164" fill="white"/>
</clipPath>
<clipPath id="clip1_369_156">
<rect width="453.308" height="375.564" fill="white" transform="translate(41.1827 -120.02) rotate(30)"/>
</clipPath>
</defs>
</svg>
