<svg width="251" height="172" viewBox="0 0 251 172" fill="none" xmlns="http://www.w3.org/2000/svg">
<g clip-path="url(#clip0_651_14)">
<path d="M373.026 89.7345C373.567 103.265 369.761 118.114 358.743 125.968C344.009 136.474 323.504 130.49 305.873 134.557C286.043 139.13 271.533 156.06 260.987 173.479C250.44 190.898 242.103 210.081 227.701 224.468C213.3 238.856 190.204 247.318 172.323 237.588C153.191 227.18 147.952 201.27 130.593 188.114C106.277 169.682 69.852 183.377 42.0032 170.925C24.284 163 12.274 144.62 10.0142 125.328C7.75452 106.035 14.5588 86.2782 26.5285 70.9921C38.5014 55.7085 55.3001 44.6685 73.3396 37.5176C90.0386 30.8949 109.078 27.5047 125.855 33.9392C139.816 39.2938 151.031 50.9884 165.595 54.3843C179 57.51 193.051 53.0189 205.288 46.7159C217.524 40.4129 228.836 32.246 241.635 27.188C252.402 22.9336 265.025 20.965 276.163 25C287.752 29.1968 294.052 40.8551 305.167 45.6064C312.735 48.8414 319.596 46.4919 327.313 45.4893C337.945 44.1106 349.123 46.2876 357.534 53.2785C368.111 62.0692 372.494 76.4173 373.029 89.737L373.026 89.7345Z" fill="#E27FB4"/>
</g>
<defs>
<clipPath id="clip0_651_14">
<rect width="251" height="172" fill="white"/>
</clipPath>
</defs>
</svg>
