<svg width="48" height="48" viewBox="0 0 48 48" fill="none" xmlns="http://www.w3.org/2000/svg">
<path d="M43.8572 23.2069C44.5876 23.9875 44.5876 25.2121 43.8572 25.9927L32.8664 37.7685L30.1968 40.4727C26.6054 44.1105 20.7876 44.1105 17.1962 40.4727C14.6827 37.9267 13.9272 34.2735 14.9346 31.0643C15.3426 29.7683 14.3654 28.452 13.0205 28.452H7.40923C5.27856 28.4469 3.70197 26.6815 3.60626 24.5998C3.5156 22.5181 5.4196 20.7477 7.40419 20.7477H13.0205C14.3654 20.7477 15.3375 19.4313 14.9346 18.1353C13.9272 14.9261 14.6827 11.2729 17.1962 8.72693C20.7876 5.08907 26.6054 5.08907 30.1968 8.72693L32.8664 11.4311L43.8572 23.212V23.2069Z" fill="#102366"/>
</svg>
