<svg width="1440" height="230" viewBox="0 0 1440 230" fill="none" xmlns="http://www.w3.org/2000/svg">
<g clip-path="url(#clip0_684_14)">
<path d="M-675.595 388.499C-682.468 454.476 -662.572 526.127 -595.828 562.467C-506.604 611.049 -377.077 578.328 -268.099 595.016C-145.548 613.822 -59.3296 693.732 1.95911 776.732C63.2895 859.725 110.341 951.688 196.518 1019.24C282.695 1086.8 424.65 1123.97 538.74 1073.47C660.816 1019.42 700.228 892.319 811.971 825.208C968.47 731.19 1192.26 791.496 1369.31 725.991C1481.93 684.295 1561.66 592.707 1580.73 498.349C1599.79 403.991 1562.45 308.944 1491.7 236.618C1420.95 164.259 1318.94 113.439 1208.2 81.7628C1105.71 52.4537 987.757 39.2634 881.391 73.5363C792.859 102.048 719.848 160.987 628.095 180.057C543.615 197.631 457.109 178.228 382.378 149.641C307.653 121.087 239.156 83.3034 160.588 60.8882C94.4927 42.0401 16.2453 34.6676 -54.3271 56.2812C-127.752 78.7547 -170.073 136.625 -240.671 161.728C-288.748 178.813 -330.953 168.575 -378.831 165.048C-444.809 160.189 -515.174 172.762 -569.449 208.279C-637.719 252.953 -668.815 323.588 -675.585 388.563L-675.595 388.499Z" fill="#102366"/>
</g>
<defs>
<clipPath id="clip0_684_14">
<rect width="1440" height="230" fill="white"/>
</clipPath>
</defs>
</svg>
