<svg width="160" height="161" viewBox="0 0 160 161" fill="none" xmlns="http://www.w3.org/2000/svg">
<path fill-rule="evenodd" clip-rule="evenodd" d="M151.644 80.1707L159.981 88.6036L157.717 90.8422L148.74 81.7627H130.192V78.5786H148.74L157.717 69.4991L159.981 71.7377L151.644 80.1707Z" fill="#8B2951"/>
<path fill-rule="evenodd" clip-rule="evenodd" d="M142.147 115.72L145.163 127.188L142.083 127.998L138.836 115.65L122.763 106.393L124.352 103.634L140.425 112.891L152.735 109.503L153.58 112.573L142.147 115.72Z" fill="#8B2951"/>
<path fill-rule="evenodd" clip-rule="evenodd" d="M116.086 141.827L112.981 153.271L109.908 152.438L113.251 140.116L103.935 124.077L106.688 122.477L116.004 138.516L128.364 141.718L127.565 144.8L116.086 141.827Z" fill="#8B2951"/>
<path fill-rule="evenodd" clip-rule="evenodd" d="M80.1486 151.385L71.6835 159.69L69.4537 157.417L78.5678 148.476L78.6394 129.928L81.8234 129.94L81.7518 148.488L90.7966 157.499L88.5493 159.755L80.1486 151.385Z" fill="#8B2951"/>
<path fill-rule="evenodd" clip-rule="evenodd" d="M44.6064 141.731L33.1269 144.705L32.3284 141.622L44.6881 138.421L54.0043 122.382L56.7576 123.981L47.4414 140.02L50.784 152.342L47.711 153.176L44.6064 141.731Z" fill="#8B2951"/>
<path fill-rule="evenodd" clip-rule="evenodd" d="M18.655 115.625L7.2217 112.478L8.06662 109.408L20.3765 112.796L36.4496 103.539L38.0387 106.298L21.9656 115.555L18.7185 127.903L15.6391 127.093L18.655 115.625Z" fill="#8B2951"/>
<path fill-rule="evenodd" clip-rule="evenodd" d="M9.21516 79.6118L0.94339 71.1147L3.22492 68.8937L12.1309 78.0422L30.6786 78.1854L30.654 81.3694L12.1063 81.2262L3.06014 90.2361L0.813181 87.9801L9.21516 79.6118Z" fill="#8B2951"/>
<path fill-rule="evenodd" clip-rule="evenodd" d="M18.9097 44.2764L15.9784 32.786L19.0636 31.9989L22.2197 44.3703L38.2242 53.7455L36.6148 56.4929L20.6103 47.1177L8.2758 50.4149L7.45351 47.3388L18.9097 44.2764Z" fill="#8B2951"/>
<path fill-rule="evenodd" clip-rule="evenodd" d="M45.06 18.3475L48.2488 6.92584L51.3156 7.78208L47.8823 20.0794L57.08 36.1865L54.315 37.7654L45.1173 21.6583L32.7815 18.3657L33.6027 15.2893L45.06 18.3475Z" fill="#8B2951"/>
<path fill-rule="evenodd" clip-rule="evenodd" d="M81.2654 8.96014L89.7944 0.721231L92.0066 3.01132L82.8237 11.8819L82.609 30.4289L79.4251 30.392L79.6399 11.845L70.6649 2.76416L72.9296 0.525923L81.2654 8.96014Z" fill="#8B2951"/>
<path fill-rule="evenodd" clip-rule="evenodd" d="M116.495 18.7527L127.996 15.8638L128.772 18.9519L116.389 22.0624L106.955 38.0322L104.213 36.4127L113.647 20.4429L110.395 8.09634L113.475 7.28538L116.495 18.7527Z" fill="#8B2951"/>
<path fill-rule="evenodd" clip-rule="evenodd" d="M142.401 45.0645L153.811 48.2955L152.943 51.3591L140.659 47.8804L124.518 57.0187L122.949 54.2479L139.09 45.1096L142.428 32.7861L145.501 33.6186L142.401 45.0645Z" fill="#8B2951"/>
<path d="M136.15 80.1706C136.15 110.945 111.203 135.892 80.4284 135.892C49.6544 135.892 24.707 110.945 24.707 80.1706C24.707 49.3965 49.6544 24.4492 80.4284 24.4492C111.203 24.4492 136.15 49.3965 136.15 80.1706Z" fill="#C33F7C"/>
<circle cx="80.428" cy="80.1698" r="23.8806" fill="#E27FB4"/>
</svg>
