<svg width="512" height="512" viewBox="0 0 512 512" fill="none" xmlns="http://www.w3.org/2000/svg">
<path d="M467.81 247.542C475.601 255.869 475.601 268.931 467.81 277.257L350.575 402.866L322.099 431.711C283.79 470.514 221.734 470.514 183.426 431.711C156.615 404.553 148.556 365.586 159.302 331.354C163.654 317.531 153.23 303.489 138.885 303.489H79.0313C56.3042 303.435 39.4872 284.605 38.4664 262.4C37.4993 240.195 57.8086 221.31 78.9776 221.31H138.885C153.23 221.31 163.6 207.269 159.302 193.446C148.556 159.213 156.615 120.246 183.426 93.0892C221.734 54.2854 283.79 54.2854 322.099 93.0892L350.575 121.933L467.81 247.597V247.542Z" fill="#E27FB4"/>
</svg>
