<svg width="24" height="24" viewBox="0 0 24 24" fill="none" xmlns="http://www.w3.org/2000/svg">
<g clip-path="url(#clip0_691_59)">
<path d="M19.7542 4.19096C20.0083 4.30976 20.2722 4.24376 20.5427 4.29656C23.1753 4.82124 24.6796 7.52054 23.6998 10.0449C22.72 12.5693 19.5233 13.457 17.2998 11.9061L11.9654 17.2453L11.9456 17.3938C13.2916 19.2219 12.7835 21.8882 10.9658 23.1916C8.12537 25.2244 4.23259 23.2147 4.26228 19.7598C2.2763 19.8621 0.290321 18.156 0.0428982 16.2025C-0.435452 12.3945 3.52991 10.0284 6.68702 12.0744L12.0412 6.71867L12.061 6.63287C11.685 6.14779 11.4639 5.55051 11.3617 4.94663C10.7481 1.31347 14.6969 -1.27363 17.8243 0.666696C19.012 1.40587 19.7707 2.78852 19.7575 4.19426L19.7542 4.19096Z" fill="black"/>
</g>
<defs>
<clipPath id="clip0_691_59">
<rect width="24" height="24" fill="white"/>
</clipPath>
</defs>
</svg>
