<svg width="24" height="24" viewBox="0 0 24 24" fill="none" xmlns="http://www.w3.org/2000/svg">
<g clip-path="url(#clip0_697_122)">
<path d="M23.9834 7.38934C23.9264 8.17431 23.6876 9.06884 23.3825 9.79936C22.0516 12.9879 20.1837 16.0934 18.8052 19.2774C17.8953 20.9051 15.8852 21.469 14.2849 20.5583C13.6439 20.1933 13.1357 19.4978 12.6883 18.9112L12.6914 15.2287C12.7491 14.891 12.9709 14.6499 13.2942 14.5909C14.8902 14.3011 16.7318 15.162 18.0294 13.7184C19.725 11.8315 18.0482 8.75899 15.5838 9.29441C14.6132 9.50508 13.5311 10.6142 13.5311 11.6817V13.113H10.4376V11.6817C10.4376 10.7607 9.52899 9.68333 8.71629 9.38775C6.40477 8.54833 4.36644 11.1807 5.65536 13.3327C6.79451 15.2346 8.92495 14.3225 10.6362 14.5812C10.9658 14.6311 11.2308 14.878 11.2772 15.2281C11.4219 16.3294 11.1757 17.7314 11.2835 18.8652C10.3141 20.4669 8.76955 21.4619 6.8979 20.78C6.17982 20.5187 5.57703 19.9729 5.17977 19.3072C3.8094 16.0876 1.8519 12.927 0.539802 9.70278C-1.04487 5.81031 0.96025 2.09739 5.27376 3.20064C6.86783 3.60836 8.32091 4.84708 9.78151 5.59381V4.30777C9.78151 4.16776 10.1512 3.79569 10.3235 3.80152C11.3593 3.87477 12.5392 3.69392 13.5568 3.79569C13.8068 3.82097 14.1871 4.08025 14.1871 4.35639V5.59381C16.3163 4.42056 18.1422 2.78384 20.7257 3.02303C22.3561 3.17406 23.8267 4.74272 23.984 6.41898C24.0084 6.6802 24.0034 7.12357 23.984 7.38934H23.9834Z" fill="black"/>
</g>
<defs>
<clipPath id="clip0_697_122">
<rect width="24" height="24" fill="white"/>
</clipPath>
</defs>
</svg>
