<svg width="24" height="24" viewBox="0 0 24 24" fill="none" xmlns="http://www.w3.org/2000/svg">
<g clip-path="url(#clip0_697_124)">
<path d="M11.8987 24.0003C11.2819 23.8101 11.5365 23.2159 11.3475 22.7561C11.1962 22.388 10.7804 22.0603 10.6046 21.6669C10.2833 20.9489 10.3117 19.8832 10.6821 19.1862C10.8989 18.7793 11.3462 18.4769 11.3953 17.9996H10.2638C10.1063 17.9996 9.88261 17.7295 9.85615 17.5786C9.78496 17.1682 10.8037 16.298 10.9934 15.8905C7.47145 15.1372 4.98027 11.1774 4.56129 8.03025C4.06167 4.2748 6.66122 0.713698 10.7243 0.0983586C15.8485 -0.677861 20.0697 3.2737 19.4372 8.03084C19.0182 11.1786 16.5264 15.1378 13.0057 15.8905C12.9408 15.9692 14.1889 17.1799 14.1524 17.5428C14.0837 18.228 12.9893 17.9362 12.5093 18.0054C12.474 18.6713 12.0203 19.0324 11.7066 19.5315C11.4325 19.9683 11.3972 20.7199 11.5604 21.1978C11.6663 21.5078 12.0027 21.7844 12.176 22.0774C12.4021 22.4596 12.5521 22.9769 12.5521 23.4143C12.5521 23.6997 12.3776 23.9075 12.0997 24.0003H11.8987Z" fill="black"/>
</g>
<defs>
<clipPath id="clip0_697_124">
<rect width="24" height="24" fill="white"/>
</clipPath>
</defs>
</svg>
