<svg width="24" height="24" viewBox="0 0 24 24" fill="none" xmlns="http://www.w3.org/2000/svg">
<g clip-path="url(#clip0_691_50)">
<path d="M11.5221 0.059104C13.8971 -0.47796 15.1527 2.79062 12.9059 3.97512C12.8 4.03005 12.5516 4.06838 12.5231 4.15383V6.7427C13.2781 6.86278 14.0257 7.07067 14.6871 7.46145C14.8076 7.53316 15.2744 7.90558 15.3131 7.91555C15.368 7.92979 15.4092 7.91513 15.4479 7.87649L17.1822 6.13821C17.2308 6.03018 17.0453 5.72054 17.0025 5.56594C16.4006 3.36818 19.1887 1.93348 20.6256 3.67727C21.9139 5.2424 20.4075 7.53896 18.4313 6.99758C18.2767 6.95479 17.9681 6.76957 17.86 6.81789L16.1217 8.55227C16.0831 8.59084 16.0686 8.63131 16.0826 8.68606C16.0928 8.72267 16.4672 9.1946 16.5367 9.31301C16.9316 9.98262 17.1395 10.7098 17.2555 11.4771H19.8443C19.9297 11.4483 19.9682 11.1981 20.0231 11.0943C21.2076 8.84328 24.4763 10.105 23.9391 12.478C23.5422 14.2303 21.1938 14.6742 20.1842 13.1665C20.0418 12.9529 19.9745 12.7347 19.8463 12.521H17.2574C17.1027 13.5162 16.7769 14.5155 16.1012 15.2808L16.0846 15.3882L17.8941 17.1958C18.58 16.9027 19.193 16.7952 19.8932 17.1148C21.0835 17.6583 21.4823 19.2311 20.6725 20.271C19.2641 22.0763 16.3919 20.6659 17.0045 18.4312C17.0472 18.2767 17.2323 17.9682 17.1842 17.8599L15.3932 16.0806L15.2867 16.0972C14.5256 16.7605 13.5426 17.1146 12.5475 17.2407L12.527 19.8413C12.7285 19.9655 12.9386 20.0294 13.1441 20.1616C14.7801 21.2181 14.153 23.7657 12.2379 23.9956H11.7701C11.2919 23.8918 10.822 23.7046 10.4801 23.3404C9.60493 22.4062 9.77318 20.8916 10.8356 20.1792C11.0493 20.0368 11.2674 19.9696 11.4811 19.8413V17.2525C10.4859 17.0978 9.48651 16.7728 8.7213 16.0972L8.61583 16.0806L6.80821 17.8902C7.09713 18.5657 7.20094 19.1579 6.90391 19.8579C6.38904 21.0688 4.77306 21.4802 3.73302 20.6685C1.92162 19.254 3.34627 16.3899 5.57286 17.0005C5.72749 17.0433 6.03612 17.2277 6.14415 17.1792L7.92149 15.3863L7.90489 15.2788C7.24353 14.5177 6.88756 13.5347 6.76134 12.5396L4.1627 12.5191C4.03458 12.7326 3.96705 12.9501 3.82481 13.1636C3.11247 14.226 1.59787 14.3952 0.663681 13.52C0.29944 13.1782 0.11221 12.7082 0.00840734 12.23C0.0206063 12.0795 -0.00978951 11.9087 0.00840734 11.7622L0.00645422 11.7661C0.238463 9.84901 2.78403 9.22385 3.84044 10.8599C3.97273 11.0654 4.03562 11.2776 4.15977 11.4771L6.75938 11.4566C6.89573 10.4655 7.23959 9.47643 7.90294 8.71731L7.91954 8.60891L6.1422 6.81594C6.03411 6.76766 5.72555 6.95177 5.57091 6.99465C3.34635 7.60523 1.91967 4.74218 3.73106 3.32766C4.77307 2.51374 6.38492 2.92239 6.90196 4.13723C7.19911 4.83736 7.09527 5.43027 6.80626 6.10598L8.61388 7.91555L8.71935 7.89895C9.48664 7.22527 10.4798 6.8872 11.4791 6.7427V4.15383C11.2654 4.02561 11.0473 3.95841 10.8336 3.81594C9.32573 2.80636 9.76979 0.455963 11.5221 0.059104Z" fill="black"/>
</g>
<defs>
<clipPath id="clip0_691_50">
<rect width="24" height="24" fill="white"/>
</clipPath>
</defs>
</svg>
