<svg width="24" height="24" viewBox="0 0 24 24" fill="none" xmlns="http://www.w3.org/2000/svg">
<g clip-path="url(#clip0_697_126)">
<path d="M8.27563 3.10211L15.3346 3.10011C19.2942 3.30521 21.726 7.59565 19.7234 11.127C17.4772 15.0885 12.5496 13.453 8.84544 13.7906C8.18253 13.8479 8.08613 14.8048 8.7946 14.8907C11.3835 15.0239 14.1527 14.7096 16.7212 14.8874C20.3427 15.1384 20.6465 18.6124 20.4576 21.5065C20.3394 23.3138 18.7224 24.5717 17.0077 23.7379C16.4848 23.4836 15.7043 22.6099 15.7043 22.0059V19.6832L8.4473 19.6852C4.58405 19.3603 2.29027 15.0911 4.25656 11.659C6.51865 7.71019 11.4766 9.32968 15.1854 8.99673C15.8767 8.91282 15.8021 7.99054 15.1794 7.90131L7.11289 7.89598C4.20506 7.44516 3.34406 5.19772 3.52234 2.47882C3.63194 0.796731 4.96701 -0.390584 6.65202 0.120168C7.32484 0.323936 8.27563 1.23889 8.27563 1.97872V3.10277V3.10211Z" fill="black"/>
</g>
<defs>
<clipPath id="clip0_697_126">
<rect width="24" height="24" fill="white"/>
</clipPath>
</defs>
</svg>
