<svg width="24" height="24" viewBox="0 0 24 24" fill="none" xmlns="http://www.w3.org/2000/svg">
<g clip-path="url(#clip0_700_148)">
<path d="M20.932 24.0008H6.67708C5.25196 23.7061 5.07662 22.4353 5.16242 21.1453L1.56232 19.8056C1.39444 19.0018 1.52128 18.1214 2.49872 18.0946C5.16988 18.2592 8.08355 17.8802 10.7249 18.0946C11.7433 18.175 11.7806 18.9022 11.6837 19.7864L7.68436 21.3099L7.63959 21.4745H19.9732C19.9583 19.8171 20.0851 18.175 19.6673 16.5597C19.3539 15.3501 18.7458 14.263 18.0519 13.2486C18.5369 12.8812 18.9846 12.3568 19.2346 11.7864C19.2719 11.7022 19.4584 11.0745 19.5144 11.1128C19.7755 11.507 20.1001 11.8707 20.3761 12.2687C21.5998 14.0601 22.3385 16.1998 22.4429 18.397C22.4952 19.5147 22.5362 21.2448 22.4429 22.3357C22.3683 23.1625 21.7565 23.8936 20.9357 24.0008H20.932Z" fill="black"/>
<path d="M17.5856 0.0122541C17.8095 -0.0260234 18.0184 0.0275651 18.2124 0.142398C18.5146 0.318474 19.8949 1.52039 20.1561 1.80364C20.4508 2.12135 20.518 2.52326 20.3277 2.92135C20.2493 3.08977 20.0927 3.18546 20.018 3.34623C20.5441 3.75962 20.9619 4.24192 20.5553 4.93857L18.44 7.49934C16.847 5.84575 14.1273 6.14814 12.8514 8.0467C11.7135 9.7424 12.1165 12.0276 13.7095 13.241C13.2095 13.7922 12.7693 14.4544 12.2731 14.9979C11.2286 16.1424 10.904 15.2812 9.94893 14.6266C9.47514 15.1012 9.09088 15.8515 8.30743 15.4572C8.11344 15.3577 7.24419 14.6764 7.0875 14.5079C6.4794 13.8534 7.04273 13.2524 7.35238 12.6285C6.94573 12.0544 6.13991 11.6257 6.58759 10.7989L15.2652 0.25723C15.8397 -0.232722 16.403 0.161536 16.8432 0.609383C17.026 0.352924 17.2648 0.0658426 17.5856 0.0122541Z" fill="black"/>
<path d="M15.5784 7.28121C19.4098 6.88312 19.8426 12.7893 16.2052 13.1262C12.3439 13.4822 11.9186 7.66398 15.5784 7.28121Z" fill="black"/>
</g>
<defs>
<clipPath id="clip0_700_148">
<rect width="24" height="24" fill="white"/>
</clipPath>
</defs>
</svg>
