<svg width="24" height="24" viewBox="0 0 24 24" fill="none" xmlns="http://www.w3.org/2000/svg">
<g clip-path="url(#clip0_697_117)">
<path d="M12.3127 24.0001H11.8085C7.16602 23.7018 4.48513 18.8056 6.66319 14.5431C8.08161 11.7692 9.91817 9.09565 11.3837 6.33414C11.6875 5.92589 12.2508 5.87778 12.6286 6.20905C14.1412 8.90734 15.8715 11.5754 17.3195 14.308C17.5777 14.796 17.8103 15.2688 17.9662 15.8036C19.1225 19.7609 16.334 23.8036 12.3127 23.9987V24.0001Z" fill="black"/>
<path d="M20.1457 0.00277535C20.4052 -0.0178432 20.6997 0.119614 20.8637 0.324425C21.5225 1.58765 22.3789 2.80827 23.0229 4.0715C25.0477 8.05089 20.1067 11.1217 17.6342 8.03302C15.5288 5.40209 18.4584 2.65982 19.5394 0.32305C19.6711 0.155353 19.94 0.0178956 20.1457 0.00140078V0.00277535Z" fill="black"/>
<path d="M3.21995 4.69285C3.65825 4.61038 3.8653 4.73134 4.10462 5.07911C4.67737 5.91072 5.45313 7.32653 5.91563 8.24474C6.43325 9.27155 6.5556 10.2351 6.00168 11.288C5.04172 13.1135 2.54368 13.4173 1.21533 11.831C-0.735507 9.50248 1.81631 7.10523 2.79913 5.01313C2.92416 4.8743 3.02635 4.72997 3.21995 4.69285Z" fill="black"/>
</g>
<defs>
<clipPath id="clip0_697_117">
<rect width="24" height="24" fill="white"/>
</clipPath>
</defs>
</svg>
