<svg width="24" height="24" viewBox="0 0 24 24" fill="none" xmlns="http://www.w3.org/2000/svg">
<g clip-path="url(#clip0_691_62)">
<path d="M9.88231 8.35181L15.6502 14.074L8.19819 21.5233C7.97105 21.6723 7.69916 21.671 7.43796 21.6376L4.33491 20.8078L1.12431 23.9999L0 22.9256L3.18855 19.7188L2.30273 16.1799L2.40695 15.8819L4.62484 13.6498L7.07521 16.0984L8.17681 14.9994L5.75049 12.5241L7.23153 11.0522L9.6819 13.4454L10.7969 12.3671L8.40394 9.91649L9.88231 8.35181Z" fill="black"/>
<path d="M12.6321 3.65039L20.3293 11.2987C20.3627 11.3362 20.3493 11.3595 20.3293 11.3976C20.2959 11.4624 19.3653 12.3931 19.3005 12.4265C19.2524 12.4512 19.2491 12.4512 19.2016 12.4265C19.028 12.337 18.3606 11.4791 18.233 11.5019L16.8274 12.9015L16.7012 12.9262L11.0723 7.29686L11.097 7.17059L12.4965 5.76491L11.5539 4.7287L12.6321 3.65039Z" fill="black"/>
<path d="M17.5826 0L23.9791 6.34824C24.0125 6.38566 23.9991 6.40904 23.9791 6.44712C23.9457 6.51193 23.0164 7.44459 22.9503 7.47465C22.9262 7.48601 22.9055 7.50271 22.8761 7.50004L21.2261 5.89862L19.1826 7.89422L16.1724 4.84703L16.1971 4.72076L18.097 2.81535C18.1244 2.66102 16.5618 1.37561 16.5057 1.16182C16.4877 1.09234 16.5137 1.07029 16.5471 1.01951C16.7636 0.697492 17.3234 0.324026 17.5819 0L17.5826 0Z" fill="black"/>
</g>
<defs>
<clipPath id="clip0_691_62">
<rect width="24" height="24" fill="white"/>
</clipPath>
</defs>
</svg>
