<svg width="24" height="24" viewBox="0 0 24 24" fill="none" xmlns="http://www.w3.org/2000/svg">
<g clip-path="url(#clip0_700_136)">
<path d="M17.3448 9.5171C17.5672 11.4124 17.4654 13.6171 16.3304 15.2247C14.8273 17.3529 11.9083 17.6298 9.5092 17.345C9.68536 19.1523 9.64059 21.1579 8.6883 22.7604C8.48687 23.1001 8.04719 23.6973 7.69198 23.8711C6.67326 24.3694 5.68127 23.3497 6.14911 22.3299C6.23935 22.1337 6.69492 21.7616 6.62056 21.6123L2.37461 17.3695C2.23887 17.301 1.87283 17.738 1.69378 17.8253C0.43104 18.4398 -0.705353 16.9274 0.537893 15.8067C2.11758 14.383 4.64234 14.295 6.64583 14.4847L6.53825 12.6226C6.62273 11.3958 6.80972 10.2174 7.42845 9.13919C8.82404 6.70804 11.9358 6.34167 14.4822 6.65683C14.3464 4.8286 14.3392 2.82223 15.324 1.20819C15.5204 0.887255 15.9644 0.294431 16.2994 0.130719C17.3369 -0.376283 18.3354 0.694695 17.8228 1.70653C17.7376 1.87457 17.3037 2.26114 17.3694 2.39023L21.6168 6.63303C21.7431 6.69722 22.1915 6.20753 22.4109 6.12819C23.3134 5.80149 24.143 6.47509 23.9805 7.42635C23.8643 8.11149 22.6109 8.83413 22.0081 9.07284C20.5194 9.66278 18.9187 9.63826 17.3463 9.51782L17.3448 9.5171ZM20.5879 7.14076L16.8597 3.41649C16.6322 4.63243 16.6618 5.87505 16.8828 7.09027C18.0928 7.36721 19.3685 7.37442 20.5879 7.14076ZM14.9652 9.03318C13.8699 8.89903 12.6917 8.72595 11.6166 9.00361L15.0208 12.3781C15.2323 11.2725 15.1197 10.1388 14.9652 9.03318ZM10.4146 9.36204C10.1207 9.40243 9.2399 10.2477 9.37274 10.5405L13.4259 14.595C13.5754 14.7133 13.8259 14.5179 13.9587 14.4198C14.1537 14.277 14.7284 13.7008 14.6186 13.4592C14.0779 13.0625 10.7055 9.32166 10.4146 9.36204ZM12.3733 15.0227L8.96915 11.6223C8.75834 12.7286 8.87385 13.8609 9.02475 14.9672C10.1301 15.1172 11.2687 15.2412 12.3733 15.0227ZM7.131 20.5831C7.3577 19.3679 7.34254 18.1231 7.10645 16.9101C5.89642 16.6202 4.62212 16.6353 3.4027 16.8589L7.131 20.5831Z" fill="black"/>
</g>
<defs>
<clipPath id="clip0_700_136">
<rect width="24" height="24" fill="white"/>
</clipPath>
</defs>
</svg>
