<svg width="24" height="24" viewBox="0 0 24 24" fill="none" xmlns="http://www.w3.org/2000/svg">
<g clip-path="url(#clip0_691_54)">
<path d="M19.1307 19.1349L17.8668 15.6845C18.1217 15.0263 18.5667 14.54 18.8396 13.8662C21.1344 8.19795 16.3081 2.44172 10.3279 3.67548C4.85872 4.80448 2.84334 11.3108 6.03199 15.6845L4.76817 19.1349C4.50299 19.3418 2.77866 17.0166 2.59627 16.7165C-0.928703 10.9125 1.61833 3.20862 7.93612 0.768267C15.6134 -2.19714 23.4977 3.82549 22.8781 11.9561C22.6789 14.5736 21.2236 17.5597 19.1294 19.1349H19.1307Z" fill="black"/>
<path d="M18.7412 20.9451H5.15869C5.72657 19.8588 7.58413 13.4805 8.18823 13.046C8.30982 12.958 8.42883 12.9141 8.58018 12.9205L15.6366 12.9917L15.9199 13.3551L18.7412 20.9451Z" fill="black"/>
<path d="M18.8709 21.8506C19.0326 22.9408 19.3857 23.8486 18.0352 23.9262C13.9385 24.1603 9.61151 23.7504 5.4915 23.9081L5.06203 23.7594C4.83566 23.1477 4.83825 22.4713 5.03099 21.8519H18.8722L18.8709 21.8506Z" fill="black"/>
</g>
<defs>
<clipPath id="clip0_691_54">
<rect width="24" height="24" fill="white"/>
</clipPath>
</defs>
</svg>
