<svg width="24" height="24" viewBox="0 0 24 24" fill="none" xmlns="http://www.w3.org/2000/svg">
<g clip-path="url(#clip0_691_68)">
<path d="M0.0154278 9.6611C0.033344 9.51802 0.150794 9.20706 0.218478 9.06398C0.45736 8.55463 0.947068 8.16354 1.48057 7.95942C1.54626 6.76901 1.38502 5.48321 1.47659 4.30234C1.6876 1.53997 5.11954 0.866546 7.28939 2.07604C8.01997 2.48238 8.47783 3.08903 8.9536 3.73765C10.8786 2.67696 13.2893 2.67696 15.2143 3.73765C15.8633 2.79143 16.6257 2.01117 17.8002 1.69449C19.9959 1.10119 22.3449 1.86046 22.6853 4.2203L22.6893 7.95942C23.8618 8.40582 24.461 9.58861 23.9873 10.7466C23.3821 12.2232 21.3138 12.5093 20.2627 11.2903C19.2713 10.1399 19.8208 8.47069 21.2321 7.95942V4.39581C21.051 2.97075 19.6077 2.73992 18.3616 3.00128C17.422 3.19777 16.8546 3.87119 16.3848 4.62283C17.7962 5.97731 18.266 7.94988 17.7066 9.78701C17.2667 11.235 16.1519 12.4654 16.0922 14.024C16.0663 14.7013 16.1798 15.5578 16.2873 16.2313C16.5481 17.8604 17.4857 19.4095 16.2096 20.8727C15.4751 21.7159 13.9622 22.3722 12.8374 22.5V11.9217C13.8905 11.7252 14.7883 10.47 14.6251 9.46079C14.5235 8.82934 13.5381 8.68053 13.2515 9.31389C13.0843 9.68399 13.2495 9.92436 12.9071 10.2945C12.4612 10.7771 11.7027 10.779 11.2568 10.2945C10.8846 9.89002 11.1035 9.5142 10.8308 9.167C10.4984 8.74158 9.7459 8.85223 9.57271 9.35777C9.24822 10.3078 10.3013 11.7768 11.3285 11.9217V22.5C10.2077 22.3665 8.68685 21.7102 7.95627 20.8727C6.67626 19.4057 7.61785 17.8643 7.87863 16.2313C7.98414 15.5636 8.09761 14.6936 8.07372 14.024C8.01798 12.4712 6.89723 11.2311 6.45927 9.78701C5.89989 7.94988 6.3677 5.97731 7.78109 4.62283C7.30532 3.86165 6.72404 3.17869 5.76652 2.99174C4.52433 2.74946 3.05122 2.99364 2.93377 4.43969C2.84021 5.57096 3.00743 6.8167 2.93377 7.95942C4.52234 8.52219 4.94038 10.531 3.59667 11.5841C2.28879 12.6085 0.22445 11.8416 0.0134371 10.2506C-0.00447904 10.1151 -0.00447904 9.79845 0.0134371 9.66301L0.0154278 9.6611Z" fill="black"/>
</g>
<defs>
<clipPath id="clip0_691_68">
<rect width="24" height="24" fill="white"/>
</clipPath>
</defs>
</svg>
