<svg width="313" height="50" viewBox="0 0 313 50" fill="none" xmlns="http://www.w3.org/2000/svg">
<g clip-path="url(#clip0_378_229)">
<path d="M13.3131 45.528C14.5262 44.8975 15.6877 44.219 16.7943 43.496L11.2821 42.6461L13.3131 45.528Z" fill="#5BC0EC"/>
<path d="M11.1997 46.5492C11.9214 46.2237 12.6224 45.8844 13.3097 45.528L11.2787 42.6461L11.1997 46.5492Z" fill="#58C0ED"/>
<path d="M1.73206 48.8349V49.647L2.98639 49.342C5.91089 48.6327 8.66012 47.6938 11.2032 46.5492L11.2822 42.6461L1.73206 48.8314V48.8349Z" fill="#58C0ED"/>
<path d="M8.94535 36.4677C7.40922 39.144 5.09643 41.6558 2.15819 43.7358L1.73206 44.0408V48.8349L11.2822 42.6495L8.94535 36.4677Z" fill="#263780"/>
<path d="M0.1787 12.7646C0.0618577 13.5048 0 14.2621 0 15.0332C0 17.0652 0.26805 18.8917 0.81446 20.5297L3.97951 25.6048C4.78366 26.3929 5.70809 27.1057 6.76311 27.7499L12.564 15.0709L0.1787 12.7646Z" fill="#EA007F"/>
<path d="M3.97951 25.6048L0.814453 20.5298C1.4674 22.483 2.51554 24.169 3.97951 25.6048Z" fill="#EA007F"/>
<path d="M12.5639 15.0709L6.76306 27.75C8.01396 28.5107 9.44012 29.1721 11.0553 29.7409C11.0553 29.7581 11.0553 29.7786 11.0519 29.7958L19.6466 31.0362L12.5639 15.0709Z" fill="#9A3485"/>
<path d="M23.5231 37.7836C24.774 36.4026 25.8806 34.9325 26.8291 33.3904L19.6467 31.0363L23.5197 37.7836H23.5231Z" fill="#1A6FB5"/>
<path d="M19.6467 31.0362L26.8291 33.3904C27.4958 32.3075 28.0869 31.187 28.5989 30.0356L26.9631 22.1334L19.6467 31.0362Z" fill="#2FA98E"/>
<path d="M26.9356 22.0101L26.9665 21.9622L12.564 15.0709L19.6467 31.0362L26.9631 22.1335L26.9356 22.0101Z" fill="#249F65"/>
<path d="M26.9974 21.9175L16.3132 7.7821L12.564 15.0708L26.9665 21.9621L26.9974 21.9175Z" fill="#F5BC02"/>
<path d="M26.9974 21.9175L30.7776 16.1743C30.4614 13.3061 29.6676 10.8045 28.537 8.68678L16.3167 7.77869L27.0009 21.9175H26.9974Z" fill="#E4BA17"/>
<path d="M28.5336 8.68683C26.884 5.59931 24.5163 3.32394 21.8701 1.91211L16.3132 7.77874L28.5336 8.68683Z" fill="#F8B52C"/>
<path d="M21.8667 1.91209C19.7532 0.784682 17.4576 0.208984 15.2067 0.208984C14.9558 0.208984 14.705 0.215838 14.4575 0.226118L16.3098 7.77872L21.8667 1.91209Z" fill="#F7C92B"/>
<path d="M28.6264 29.967C30.1247 26.5608 30.9254 22.8736 30.9254 19.0082C30.9254 18.0659 30.8773 17.1578 30.7845 16.2839L27.0627 22.0101L28.6264 29.967Z" fill="#4BA236"/>
<path d="M26.9631 22.1335L28.5989 30.0356C28.6092 30.0116 28.6195 29.9911 28.6299 29.9671L27.0662 22.0101L26.9631 22.1335Z" fill="#4BA236"/>
<path d="M26.9355 22.0101L26.9634 22.1335L27.0642 22.0101L26.9669 21.9622L26.9355 22.0101Z" fill="#4BA236"/>
<path d="M27.0639 22.0101L26.9979 21.9176L26.9666 21.9621L27.0639 22.0101Z" fill="#4BA236"/>
<path d="M27.0627 22.0101L30.7845 16.284C30.7811 16.2497 30.7776 16.212 30.7742 16.1777L26.994 21.921L27.0627 22.0101Z" fill="#4BA236"/>
<path d="M3.71835 5.33203C1.88667 7.39152 0.622025 9.95132 0.178711 12.7647L12.564 15.0675L3.71835 5.33203Z" fill="#EC0007"/>
<path d="M16.3133 7.78212L4.7734 4.2594C4.40569 4.59865 4.05173 4.95503 3.71838 5.33198L12.564 15.0709L16.3133 7.78212Z" fill="#E3730A"/>
<path d="M14.4609 0.229492C10.7219 0.407684 7.33008 1.90861 4.77673 4.25937L16.3166 7.77867L14.4609 0.229492Z" fill="#F7AF29"/>
<path d="M19.6466 31.0363L11.2821 42.6496L16.7943 43.4994C19.3511 41.8237 21.6055 39.9047 23.5231 37.787L19.6501 31.0397L19.6466 31.0363Z" fill="#66A3C4"/>
<path d="M19.6467 31.0361L11.0519 29.7957C10.9144 32.0368 10.1825 34.3053 8.94531 36.4676L11.2822 42.6495L19.6467 31.0361Z" fill="#2C2B67"/>
<path d="M37.6267 49.6471V24.6351H43.2145V44.901H48.4037V49.6471H37.6267Z" fill="black"/>
<path d="M58.7271 49.6471L58.1051 44.0135H54.672L53.9915 49.6471H48.3762L53.0293 24.6351H59.7787L64.3183 49.6471H58.7305H58.7271ZM56.4005 29.5251L55.1806 39.5519H57.593L56.4005 29.5251Z" fill="black"/>
<path d="M79.4596 43.0198C79.3187 45.7817 78.7208 47.0222 77.9269 47.944C76.4252 49.7157 74.4114 49.6437 72.48 49.6437H65.332V24.6317H73.102C73.5557 24.6317 75.8547 24.7037 77.4974 26.0127C79.3978 27.5376 79.4837 29.9089 79.4837 32.3899V41.0357C79.4837 41.7073 79.4837 42.3824 79.4562 43.0198H79.4596ZM73.8443 31.6463C73.8443 30.0152 73.6175 29.4498 72.3116 29.4498H71.0058V44.9662H72.3116C73.6175 44.9662 73.8443 44.3631 73.8443 42.9101V31.6429V31.6463Z" fill="black"/>
<path d="M93.9826 47.8035C92.5358 49.5375 90.3536 50.0001 88.4223 50.0001C84.7623 50.0001 82.6351 48.6191 81.7863 46.7412C81.1059 45.254 81.0784 43.5886 81.0784 41.9574V32.5338C81.0784 29.9123 81.1059 27.5376 83.0063 25.8722C83.9719 25.0223 85.5287 24.2787 88.1954 24.2787C88.4498 24.2787 93.443 24.0663 94.8589 27.894C95.3984 29.3092 95.3709 30.8684 95.3709 32.3933V41.9574C95.3709 44.1197 95.3434 46.2101 93.9826 47.8035ZM89.7006 30.8684C89.7006 30.0528 89.6732 29.0248 88.1989 29.0248C86.7246 29.0248 86.7521 30.1591 86.7521 30.9027V43.3384C86.7521 44.0478 86.7521 45.2163 88.2264 45.2163C89.7007 45.2163 89.7006 44.0478 89.7006 43.3042V30.8684Z" fill="black"/>
<path d="M114.234 49.6471L113.612 44.0135H110.179L109.498 49.6471H103.883L108.536 24.6351H115.286L119.822 49.6471H114.234ZM111.908 29.5251L110.688 39.5519H113.1L111.908 29.5251Z" fill="black"/>
<path d="M128.585 49.6471V24.6351H134.173V44.901H139.362V49.6471H128.585Z" fill="black"/>
<path d="M149.685 49.6471L149.063 44.0135H145.63L144.95 49.6471H139.334L143.988 24.6351H150.737L155.273 49.6471H149.685ZM147.359 29.5251L146.139 39.5519H148.551L147.359 29.5251Z" fill="black"/>
<path d="M170.421 43.0198C170.281 45.7817 169.683 47.0222 168.889 47.944C167.387 49.7157 165.373 49.6437 163.442 49.6437H156.294V24.6317H164.064C164.517 24.6317 166.817 24.7037 168.459 26.0127C170.36 27.5376 170.446 29.9089 170.446 32.3899V41.0357C170.446 41.7073 170.445 42.3824 170.418 43.0198H170.421ZM164.806 31.6463C164.806 30.0152 164.579 29.4498 163.273 29.4498H161.968V44.9662H163.273C164.579 44.9662 164.806 44.3631 164.806 42.9101V31.6429V31.6463Z" fill="black"/>
<path d="M184.941 47.8035C183.494 49.5375 181.312 50.0001 179.381 50.0001C175.721 50.0001 173.593 48.6191 172.745 46.7412C172.064 45.254 172.037 43.5886 172.037 41.9574V32.5338C172.037 29.9123 172.064 27.5376 173.965 25.8722C174.93 25.0223 176.487 24.2787 179.154 24.2787C179.408 24.2787 184.401 24.0663 185.817 27.894C186.357 29.3092 186.329 30.8684 186.329 32.3933V41.9574C186.329 44.1197 186.302 46.2101 184.941 47.8035ZM180.659 30.8684C180.659 30.0528 180.631 29.0248 179.157 29.0248C177.683 29.0248 177.71 30.1591 177.71 30.9027V43.3384C177.71 44.0478 177.71 45.2163 179.185 45.2163C180.659 45.2163 180.659 44.0478 180.659 43.3042V30.8684Z" fill="black"/>
<path d="M208.766 38.6643C207.491 40.6142 205.56 40.6142 203.691 40.6142H201.508V49.6471H195.893V24.6351H204.457C206.244 24.6351 208.003 24.8476 209.024 26.9037C209.705 28.2504 209.79 30.1282 209.79 33.4591C209.79 36.2587 209.509 37.5335 208.77 38.6678L208.766 38.6643ZM204.34 31.2248C204.34 29.9124 203.972 29.4189 202.921 29.4189H201.501V35.8304H202.921C204.141 35.8304 204.34 35.2273 204.34 33.812V31.2248Z" fill="black"/>
<path d="M211.234 49.6471V24.6351H222.183V29.4874H216.88V34.5522H221.787V39.336H216.88V44.8257H222.183V49.6437H211.234V49.6471Z" fill="black"/>
<path d="M223.688 49.6471V24.6351H229.276V44.901H234.465V49.6471H223.688Z" fill="black"/>
<path d="M244.788 49.6471L244.166 44.0135H240.733L240.053 49.6471H234.437L239.09 24.6351H245.84L250.379 49.6471H244.792H244.788ZM242.462 29.5251L241.242 39.5519H243.654L242.462 29.5251Z" fill="black"/>
<path d="M269.548 49.6471H261.861L258.088 24.6351H263.617L265.717 43.8353L267.844 24.6351H273.432L269.545 49.6471H269.548Z" fill="black"/>
<path d="M274.483 49.6471V24.6351H280.154V49.6471H274.483Z" fill="black"/>
<path d="M296.268 43.0198C296.127 45.7817 295.529 47.0222 294.735 47.944C293.233 49.7157 291.219 49.6437 289.288 49.6437H282.14V24.6317H289.91C290.364 24.6317 292.663 24.7037 294.305 26.0127C296.206 27.5376 296.292 29.9089 296.292 32.3899V41.0357C296.292 41.7073 296.292 42.3824 296.264 43.0198H296.268ZM290.652 31.6463C290.652 30.0152 290.425 29.4498 289.12 29.4498H287.814V44.9662H289.12C290.425 44.9662 290.652 44.3631 290.652 42.9101V31.6429V31.6463Z" fill="black"/>
<path d="M307.412 49.6471L306.79 44.0135H303.357L302.677 49.6471H297.061L301.714 24.6351H308.464L313 49.6471H307.412ZM305.086 29.5251L303.866 39.5519H306.278L305.086 29.5251Z" fill="black"/>
<path d="M40.51 20.7115H37.6267V0.212524H40.51V20.7149V20.7115Z" fill="black"/>
<path d="M45.5995 0.212524H48.2147L58.27 16.0613L57.9298 16.428V0.212524H60.7856V20.7012H58.1429L48.1185 5.09224L48.4587 4.72558V20.7012H45.6029V0.212524H45.5995Z" fill="black"/>
<path d="M69.2428 20.6429C68.3562 20.4544 67.528 20.1734 66.7617 19.7965C65.9919 19.4195 65.2736 18.95 64.6035 18.3881L66.4008 16.1881C67.1844 16.8666 68.0469 17.3737 68.9885 17.7096C69.9301 18.0488 70.9542 18.2167 72.0574 18.2167C73.5454 18.2167 74.7001 17.9426 75.5214 17.3909C76.3427 16.8426 76.7517 16.0647 76.7517 15.0572V15.0435C76.7517 14.3308 76.5661 13.7619 76.195 13.3438C75.8238 12.9258 75.3427 12.6139 74.7516 12.4118C74.164 12.2096 73.4011 12.0245 72.4663 11.8532C72.4388 11.8429 72.4079 11.8395 72.3735 11.8395C72.3392 11.8395 72.3117 11.8361 72.2807 11.8258L72.0677 11.7847C70.6896 11.5482 69.5728 11.2844 68.7102 10.9862C67.8476 10.6915 67.1088 10.1501 66.497 9.36537C65.8853 8.58064 65.5795 7.46351 65.5795 6.01742V6.00371C65.5795 4.7358 65.8647 3.65295 66.4352 2.75513C67.0057 1.85732 67.8373 1.17196 68.9301 0.702497C70.0229 0.233029 71.3391 -0.00341797 72.8753 -0.00341797C73.6107 -0.00341797 74.3324 0.0753977 75.0472 0.236456C75.7585 0.397514 76.463 0.633961 77.1538 0.949224C77.8479 1.26449 78.5284 1.66199 79.1985 2.14174L77.5593 4.4274C76.7792 3.85512 75.9956 3.42335 75.219 3.1355C74.4423 2.84765 73.6622 2.70373 72.8787 2.70373C71.4732 2.70373 70.3838 2.98473 69.6037 3.54329C68.827 4.10185 68.4387 4.89344 68.4387 5.91804V5.93175C68.4387 6.63766 68.638 7.1928 69.0401 7.59373C69.4422 7.99809 69.9405 8.29622 70.5384 8.48812C71.1364 8.68002 71.968 8.8822 73.0333 9.0878C73.0711 9.09808 73.1055 9.10494 73.1399 9.10836C73.1708 9.11179 73.2086 9.12207 73.2464 9.12892C73.2945 9.1392 73.3461 9.14606 73.4011 9.15634C73.4595 9.16662 73.511 9.17347 73.5557 9.18375C74.7997 9.43733 75.841 9.73889 76.6726 10.085C77.5077 10.4311 78.2053 10.9931 78.7655 11.771C79.3256 12.5454 79.6074 13.6077 79.6074 14.951V14.9784C79.6074 16.2292 79.3119 17.2983 78.7174 18.1859C78.1229 19.0734 77.2637 19.7519 76.1365 20.2145C75.0094 20.6806 73.6485 20.9136 72.0574 20.9136C71.0676 20.9136 70.1295 20.8211 69.2428 20.6326V20.6429Z" fill="black"/>
<path d="M80.8824 0.212524H95.3915V2.94709H80.8824V0.212524ZM86.6936 1.89164H89.5769V20.7149H86.6936V1.88822V1.89164Z" fill="black"/>
<path d="M101.103 20.7115H98.2197V0.212524H101.103V20.7149V20.7115Z" fill="black"/>
<path d="M104.495 0.212524H119.004V2.94709H104.495V0.212524ZM110.306 1.89164H113.189V20.7149H110.306V1.88822V1.89164Z" fill="black"/>
<path d="M124.3 20.0295C123.221 19.4333 122.399 18.5629 121.832 17.4218C121.269 16.2806 120.983 14.9031 120.983 13.2959V0.212524H123.867V13.3953C123.867 14.8894 124.245 16.0476 124.997 16.8632C125.75 17.6822 126.815 18.09 128.193 18.09C129.571 18.09 130.65 17.6822 131.41 16.8632C132.169 16.0442 132.547 14.8894 132.547 13.3953V0.212524H135.431V13.2959C135.431 14.9031 135.149 16.2772 134.582 17.4218C134.018 18.5629 133.19 19.4333 132.107 20.0295C131.022 20.6258 129.716 20.9239 128.19 20.9239C126.664 20.9239 125.372 20.6258 124.296 20.0295H124.3Z" fill="black"/>
<path d="M137.413 0.212524H151.923V2.94709H137.413V0.212524ZM143.225 1.89164H146.108V20.7149H143.225V1.88822V1.89164Z" fill="black"/>
<path d="M157.194 19.9849C156.101 19.3613 155.253 18.4772 154.655 17.3326C154.057 16.1915 153.758 14.8688 153.758 13.3644V7.55604C153.758 6.05168 154.057 4.72895 154.655 3.58784C155.253 2.44672 156.098 1.56262 157.194 0.935517C158.287 0.311845 159.552 -0.00341797 160.985 -0.00341797C162.418 -0.00341797 163.679 0.308418 164.775 0.935517C165.868 1.55919 166.713 2.4433 167.311 3.58784C167.909 4.72895 168.208 6.05168 168.208 7.55604V13.3644C168.208 14.8688 167.909 16.1915 167.311 17.3326C166.713 18.4737 165.868 19.3578 164.775 19.9849C163.682 20.6086 162.418 20.9239 160.985 20.9239C159.552 20.9239 158.287 20.612 157.194 19.9849ZM163.225 17.5177C163.871 17.1373 164.37 16.5959 164.724 15.8968C165.078 15.1977 165.253 14.3856 165.253 13.4638V7.45666C165.253 6.53486 165.078 5.72614 164.724 5.02365C164.37 4.32459 163.871 3.78316 163.225 3.40279C162.579 3.02242 161.834 2.83052 160.985 2.83052C160.136 2.83052 159.39 3.02242 158.744 3.40279C158.098 3.78316 157.6 4.32459 157.246 5.02365C156.892 5.72271 156.717 6.53486 156.717 7.45666V13.4638C156.717 14.3856 156.895 15.1943 157.246 15.8968C157.6 16.5959 158.098 17.1373 158.744 17.5177C159.39 17.898 160.136 18.0899 160.985 18.0899C161.834 18.0899 162.579 17.898 163.225 17.5177Z" fill="black"/>
</g>
<defs>
<clipPath id="clip0_378_229">
<rect width="313" height="50" fill="white"/>
</clipPath>
</defs>
</svg>
