<svg width="285" height="75" viewBox="0 0 285 75" fill="none" xmlns="http://www.w3.org/2000/svg">
<g clip-path="url(#clip0_378_177)">
<mask id="mask0_378_177" style="mask-type:luminance" maskUnits="userSpaceOnUse" x="0" y="0" width="285" height="75">
<path d="M285 0H0V75H285V0Z" fill="white"/>
</mask>
<g mask="url(#mask0_378_177)">
<path d="M33.345 24.4971C33.3714 20.1179 27.6236 6.61418 17.9952 6.54534C3.36728 6.44136 -0.0315952 25.5473 12.8639 34.3306C10.4418 32.6799 -1.17675 34.0962 0.0972721 42.7697C1.44013 51.9059 12.9313 49.791 16.6186 47.4652L31.1938 37.6889C32.1105 26.9635 33.3392 25.3613 33.3435 24.4971H33.345Z" fill="#6F5CB7"/>
<path d="M75.8493 39.5254C75.8493 28.9157 58.9486 21.7054 51.4202 33.2788C49.4139 36.3618 48.3376 37.0428 47.9246 37.4485C46.4266 38.8795 43.9898 41.1364 40.9863 43.1063C40.9673 43.1386 40.9526 43.1664 40.9336 43.1986C40.7008 48.2222 40.4884 53.1653 40.2614 57.8594C40.1941 59.2581 40.648 60.6261 41.512 61.7275C46.1703 67.6738 53.7427 70.8037 57.6673 66.3571C63.09 60.213 54.5071 54.006 54.5071 54.006C54.5071 54.006 75.8508 56.7214 75.8508 39.5239L75.8493 39.5254Z" fill="#C179C9"/>
<path d="M51.7696 28.9893C53.3438 23.4735 49.8966 20.4403 47.4906 19.2642C43.0491 17.0937 39.3895 18.4748 37.7216 20.1577C33.5554 24.3772 32.8876 34.9107 32.6679 38.5664C32.6679 38.6001 18.0034 48.3368 18.0166 48.3764L19.8691 54.1953C19.8691 54.1953 27.3653 49.7648 32.1451 46.862C32.2228 46.8151 32.3253 46.8722 32.3223 46.963C32.1847 52.2913 32.0617 60.7919 32.0617 60.7919C32.0617 60.7919 37.9866 59.6451 38.5197 59.4855C38.5592 59.4723 39.3881 42.3407 39.4173 42.3217C42.4238 40.3518 50.1397 34.6925 51.7681 28.9878L51.7696 28.9893ZM45.7377 29.4682L38.3059 36.0692C38.3835 34.5548 39.2885 29.8446 40.0295 26.1816C40.4995 23.8602 43.1032 22.6812 45.1578 23.8587C47.2182 25.0392 47.5125 27.8923 45.7377 29.4697V29.4682Z" fill="#EF20A0"/>
<path d="M90.2058 20.4375L83.0215 37.6614H86.8348L88.0649 34.5857H95.9375L97.1676 37.6614H100.981L93.7965 20.4375H90.2044H90.2058ZM89.2715 31.633L92.0027 24.8167L94.7338 31.633H89.2715Z" fill="#362654"/>
<path d="M118.908 24.6206C117.653 24.6206 116.596 24.9399 115.784 25.6048C114.973 26.2449 114.456 26.8849 114.185 27.5235C113.226 25.6532 111.406 24.6206 109.561 24.6206C108.429 24.6206 107.519 24.9399 106.805 25.6048C106.092 26.2449 105.723 26.8351 105.673 27.377V24.8667H102.155V37.6615H105.673V30.4029C105.969 28.8284 107.026 27.6963 108.675 27.6963C110.324 27.6963 111.308 28.9266 111.308 30.6988V37.6615H114.825V30.4029C115.219 28.9266 116.276 27.6963 117.851 27.6963C119.523 27.6963 120.459 28.8533 120.459 30.6988V37.6615H123.976V30.6241C123.976 28.6058 123.484 27.1061 122.525 26.1218C121.566 25.1127 120.361 24.6206 118.908 24.6206Z" fill="#362654"/>
<path d="M136.236 19.4531H132.005L130.627 23.3666H133.308L136.236 19.4531Z" fill="#362654"/>
<path d="M132.275 37.9071C134.464 37.9071 136.211 37.2671 137.466 35.9636L135.523 34.0683C135.104 34.2895 134.81 34.4623 134.612 34.5356C134.439 34.6088 134.145 34.7084 133.751 34.8065C133.357 34.8797 132.915 34.9295 132.398 34.9295C130.701 34.9295 129.372 34.0932 128.978 32.5188H138.204C138.573 29.8371 137.835 27.5977 136.482 26.4172C135.129 25.2367 133.58 24.6216 132.029 24.6216C129.15 24.6216 125.484 26.8112 125.484 31.3149C125.484 35.8186 129.101 37.9086 132.275 37.9086V37.9071ZM132.029 27.6226C133.407 27.6226 134.76 28.5087 135.031 30.0099H129.003C129.47 28.4603 130.676 27.6226 132.029 27.6226Z" fill="#362654"/>
<path d="M148.96 28.1147V24.7432C148.739 24.6934 148.443 24.6699 148.026 24.6699C145.787 24.6699 144.188 26.0232 143.598 28.0649V24.8662H140.08V37.6611H143.598V32.198C143.721 30.9927 144.188 29.9835 145.049 29.2205C145.91 28.4325 146.919 28.04 148.124 28.04C148.493 28.04 148.764 28.0649 148.96 28.1132V28.1147Z" fill="#362654"/>
<path d="M154.325 24.8662H150.808V37.6611H154.325V24.8662Z" fill="#362654"/>
<path d="M158.362 36.3077C159.715 37.3169 161.289 37.9071 162.765 37.9071C165.25 37.9071 167.095 36.898 168.301 34.8812L165.569 33.626C164.782 34.414 164.093 34.7831 162.813 34.7831C161.952 34.7831 161.164 34.4638 160.501 33.8487C159.836 33.2335 159.517 32.3723 159.517 31.29C159.517 30.2076 159.836 29.3215 160.501 28.7064C161.166 28.0664 161.952 27.7471 162.813 27.7471C164.093 27.7471 164.757 28.1411 165.569 28.9524L168.276 27.6973C167.07 25.6556 165.25 24.6216 162.765 24.6216C159.911 24.6216 156.098 26.8361 156.098 31.29C156.098 33.4312 157.009 35.2518 158.362 36.3092V36.3077Z" fill="#362654"/>
<path d="M179.504 26.4909H179.331C178.839 25.6297 177.511 24.6206 175.616 24.6206C173.623 24.6206 171.655 25.4818 170.301 27.5733C169.637 28.6073 169.317 29.8376 169.317 31.2641C169.317 34.1186 170.843 36.3082 172.712 37.2192C173.646 37.6864 174.607 37.9076 175.614 37.9076C177.509 37.9076 178.837 36.8985 179.329 36.0373H179.502V37.6615H183.02V24.8667H179.502V26.4909H179.504ZM178.545 33.8477C177.88 34.4628 177.068 34.7821 176.134 34.7821C175.2 34.7821 174.387 34.4628 173.724 33.8477C173.059 33.2325 172.74 32.3713 172.74 31.2641C172.74 30.1568 173.059 29.2957 173.724 28.6805C174.389 28.0654 175.2 27.7446 176.134 27.7446C177.068 27.7446 177.881 28.0639 178.545 28.6805C179.233 29.2957 179.578 30.1568 179.578 31.2641C179.578 32.3713 179.234 33.2325 178.545 33.8477Z" fill="#362654"/>
<path d="M193.513 31.3383C192.75 30.7481 192.185 30.4771 191.028 30.0831L189.478 29.5178C188.765 29.2717 188.421 28.9027 188.421 28.3856C188.421 27.8203 189.011 27.4263 189.676 27.4263C190.414 27.4263 190.956 27.8437 191.325 28.6815L194.277 27.9184C193.514 25.8519 191.867 24.6216 189.53 24.6216C188.275 24.6216 187.217 24.9658 186.331 25.6556C185.446 26.3205 185.003 27.2301 185.003 28.3622C185.003 30.1095 186.233 31.413 188.669 32.2991L190.145 32.8161C190.858 33.0871 191.227 33.4561 191.227 33.9234C191.227 34.5385 190.514 35.1038 189.603 35.1038C188.496 35.1038 187.733 34.5619 187.316 33.4547L184.536 34.3159C185.053 36.5553 186.947 37.9086 189.604 37.9086C191.056 37.9086 192.261 37.5644 193.22 36.8511C194.179 36.1378 194.671 35.1287 194.671 33.8736C194.671 32.7663 194.302 31.9051 193.514 31.3398L193.513 31.3383Z" fill="#362654"/>
<path d="M90.2058 41.8896L83.0215 59.1135H86.8348L88.0649 56.0378H95.9375L97.1676 59.1135H100.981L93.7965 41.8896H90.2044H90.2058ZM89.2715 53.0853L92.0027 46.2688L94.7338 53.0853H89.2715Z" fill="#362654"/>
<path d="M118.908 46.0723C117.653 46.0723 116.596 46.3916 115.784 47.0565C114.973 47.6965 114.456 48.3366 114.185 48.9751C113.226 47.1048 111.406 46.0723 109.561 46.0723C108.429 46.0723 107.519 46.3916 106.805 47.0565C106.092 47.6965 105.723 48.2868 105.673 48.8287V46.3183H102.155V59.1132H105.673V51.8546C105.969 50.2801 107.026 49.148 108.675 49.148C110.324 49.148 111.308 50.3782 111.308 52.1504V59.1132H114.825V51.8546C115.219 50.3782 116.276 49.148 117.851 49.148C119.523 49.148 120.459 50.305 120.459 52.1504V59.1132H123.976V52.0757C123.976 50.0575 123.484 48.5577 122.525 47.5735C121.566 46.5644 120.361 46.0723 118.908 46.0723Z" fill="#362654"/>
<path d="M140.934 47.9426H140.762C140.27 47.0814 138.941 46.0723 137.046 46.0723C135.053 46.0723 133.085 46.9335 131.732 49.0249C131.067 50.0589 130.748 51.2892 130.748 52.7158C130.748 55.5703 132.274 57.7599 134.143 58.6709C135.077 59.1381 136.037 59.3593 137.045 59.3593C138.94 59.3593 140.268 58.3501 140.76 57.4889H140.933V59.1132C140.933 60.2204 139.924 61.2545 137.858 61.2545C136.357 61.2545 135.201 61.0333 134.389 60.5895V63.469C135.25 63.9362 136.406 64.1822 137.858 64.1822C139.309 64.1822 140.81 63.8629 142.163 63.0999C143.541 62.3866 144.452 60.9586 144.452 59.1132V46.3183H140.934V47.9426ZM139.975 55.2993C139.31 55.9145 138.499 56.2338 137.565 56.2338C136.631 56.2338 135.818 55.9145 135.154 55.2993C134.49 54.6842 134.17 53.823 134.17 52.7158C134.17 51.6085 134.49 50.7473 135.154 50.1322C135.819 49.517 136.631 49.1963 137.565 49.1963C138.499 49.1963 139.312 49.5156 139.975 50.1322C140.663 50.7473 141.009 51.6085 141.009 52.7158C141.009 53.823 140.665 54.6842 139.975 55.2993Z" fill="#362654"/>
<path d="M156.197 47.9426H156.024C155.532 47.0814 154.204 46.0723 152.309 46.0723C150.316 46.0723 148.348 46.9335 146.995 49.0249C146.33 50.0589 146.011 51.2892 146.011 52.7158C146.011 55.5703 147.537 57.7599 149.405 58.6709C150.34 59.1381 151.3 59.3593 152.308 59.3593C154.203 59.3593 155.531 58.3501 156.023 57.4889H156.196V59.1132H159.713V46.3183H156.196V47.9426H156.197ZM155.238 55.2993C154.573 55.9145 153.762 56.2338 152.828 56.2338C151.893 56.2338 151.08 55.9145 150.417 55.2993C149.752 54.6842 149.433 53.823 149.433 52.7158C149.433 51.6085 149.752 50.7473 150.417 50.1322C151.082 49.517 151.893 49.1963 152.828 49.1963C153.762 49.1963 154.575 49.5156 155.238 50.1322C155.926 50.7473 156.272 51.6085 156.272 52.7158C156.272 53.823 155.928 54.6842 155.238 55.2993Z" fill="#362654"/>
<path d="M170.203 52.789C169.44 52.1987 168.875 51.9278 167.718 51.5338L166.169 50.9685C165.456 50.7224 165.112 50.3533 165.112 49.8363C165.112 49.271 165.702 48.877 166.367 48.877C167.105 48.877 167.646 49.2944 168.016 50.1322L170.968 49.3691C170.205 47.3025 168.557 46.0723 166.22 46.0723C164.965 46.0723 163.908 46.4164 163.022 47.1063C162.136 47.7712 161.694 48.6807 161.694 49.8129C161.694 51.5602 162.924 52.8637 165.359 53.7498L166.835 54.2668C167.548 54.5377 167.917 54.9068 167.917 55.374C167.917 55.9892 167.204 56.5545 166.293 56.5545C165.186 56.5545 164.423 56.0126 164.006 54.9054L161.227 55.7666C161.743 58.0059 163.637 59.3593 166.295 59.3593C167.746 59.3593 168.951 59.0151 169.91 58.3018C170.87 57.5885 171.362 56.5794 171.362 55.3242C171.362 54.217 170.993 53.3558 170.205 52.7905L170.203 52.789Z" fill="#362654"/>
<path d="M152.566 23.9555C153.538 23.9555 154.325 23.168 154.325 22.1965C154.325 21.225 153.538 20.4375 152.566 20.4375C151.595 20.4375 150.808 21.225 150.808 22.1965C150.808 23.168 151.595 23.9555 152.566 23.9555Z" fill="#362654"/>
<path d="M129.119 46.3228H125.602V59.1176H129.119V46.3228Z" fill="#362654"/>
<path d="M127.36 45.412C128.332 45.412 129.119 44.6245 129.119 43.653C129.119 42.6816 128.332 41.894 127.36 41.894C126.389 41.894 125.602 42.6816 125.602 43.653C125.602 44.6245 126.389 45.412 127.36 45.412Z" fill="#362654"/>
<path d="M232.569 14.6035H234.074V19.8366C234.074 21.31 233.134 22.1331 231.756 22.1331C230.378 22.1331 229.375 21.2895 229.375 19.7824H230.87C230.88 20.4122 231.169 20.7974 231.736 20.7974C232.302 20.7974 232.569 20.4239 232.569 19.8366V14.6035Z" fill="#362654"/>
<path d="M235.958 14.6035H237.453V19.2171C237.453 20.2423 238.008 20.7769 238.959 20.7769C239.909 20.7769 240.476 20.2423 240.476 19.2171V14.6035H241.981V19.2068C241.981 21.1723 240.572 22.1331 238.938 22.1331C237.304 22.1331 235.958 21.1723 235.958 19.2068V14.6035Z" fill="#362654"/>
<path d="M250.115 14.5918V22.0569H248.62L245.234 16.941V22.0569H243.739V14.5918H245.234L248.62 19.718V14.5918H250.115Z" fill="#362654"/>
<path d="M251.27 14.6035H256.738V15.8104H254.75V22.0584H253.255V15.8104H251.27V14.6035Z" fill="#362654"/>
<path d="M261.688 20.6377H258.72L258.229 22.0584H256.659L259.339 14.5933H261.08L263.762 22.0584H262.18L261.689 20.6377H261.688ZM260.203 16.323L259.124 19.4411H261.281L260.202 16.323H260.203Z" fill="#362654"/>
<path d="M267.26 22.1331C265.713 22.1331 264.516 21.3217 264.494 19.9113H266.096C266.139 20.5088 266.534 20.9043 267.228 20.9043C267.922 20.9043 268.35 20.5308 268.35 19.9962C268.35 18.3837 264.506 19.3547 264.516 16.6525C264.516 15.3065 265.606 14.4951 267.143 14.4951C268.681 14.4951 269.716 15.2743 269.813 16.6203H268.168C268.136 16.1296 267.741 15.7444 267.101 15.7342C266.514 15.7122 266.076 16.0007 266.076 16.61C266.076 18.1054 269.899 17.272 269.899 19.8995C269.899 21.0742 268.959 22.1316 267.262 22.1316L267.26 22.1331Z" fill="#362654"/>
<path d="M233.144 27.3223C234.799 27.3223 236.145 28.2084 236.647 29.736H234.928C234.575 29.0198 233.935 28.6682 233.134 28.6682C231.831 28.6682 230.902 29.6188 230.902 31.1347C230.902 32.6505 231.831 33.6025 233.134 33.6025C233.935 33.6025 234.577 33.2496 234.928 32.5231H236.647C236.145 34.061 234.801 34.9368 233.144 34.9368C230.998 34.9368 229.363 33.3667 229.363 31.1347C229.363 28.9026 230.998 27.3223 233.144 27.3223Z" fill="#362654"/>
<path d="M241.46 34.9485C239.356 34.9485 237.637 33.3682 237.637 31.1244C237.637 28.8806 239.356 27.312 241.46 27.312C243.565 27.312 245.272 28.8923 245.272 31.1244C245.272 33.3565 243.575 34.9485 241.46 34.9485ZM241.46 33.6128C242.806 33.6128 243.734 32.6403 243.734 31.1244C243.734 29.6085 242.806 28.658 241.46 28.658C240.114 28.658 239.176 29.6085 239.176 31.1244C239.176 32.6403 240.104 33.6128 241.46 33.6128Z" fill="#362654"/>
<path d="M253.058 27.4072V34.8724H251.562L248.177 29.7565V34.8724H246.682V27.4072H248.177L251.562 32.5334V27.4072H253.058Z" fill="#362654"/>
<path d="M254.213 27.4189H259.681V28.6258H257.695V34.8738H256.2V28.6258H254.213V27.4189Z" fill="#362654"/>
<path d="M263.632 27.4189C265.426 27.4189 266.324 28.4559 266.324 29.7052C266.324 30.6133 265.821 31.5316 264.625 31.8523L266.408 34.8753H264.679L263.034 31.9695H262.33V34.8753H260.835V27.4204H263.632V27.4189ZM263.579 28.658H262.33V30.8476H263.579C264.412 30.8476 264.786 30.4097 264.786 29.7374C264.786 29.0652 264.412 28.658 263.579 28.658Z" fill="#362654"/>
<path d="M272.459 33.4532H269.491L269.001 34.8738H267.431L270.111 27.4087H271.852L274.533 34.8738H272.951L272.461 33.4532H272.459ZM270.975 29.1384L269.895 32.2566H272.052L270.973 29.1384H270.975Z" fill="#362654"/>
<path d="M233.187 47.7639C231.082 47.7639 229.363 46.1836 229.363 43.9398C229.363 41.696 231.082 40.1274 233.187 40.1274C235.291 40.1274 236.999 41.7078 236.999 43.9398C236.999 46.1719 235.301 47.7639 233.187 47.7639ZM233.187 46.4282C234.533 46.4282 235.461 45.4557 235.461 43.9398C235.461 42.424 234.533 41.4734 233.187 41.4734C231.841 41.4734 230.902 42.424 230.902 43.9398C230.902 45.4557 231.831 46.4282 233.187 46.4282Z" fill="#362654"/>
<path d="M244.602 40.1377C246.257 40.1377 247.603 41.0238 248.105 42.5514H246.386C246.033 41.8352 245.393 41.4837 244.592 41.4837C243.289 41.4837 242.36 42.4342 242.36 43.9501C242.36 45.466 243.289 46.418 244.592 46.418C245.393 46.418 246.035 46.065 246.386 45.3385H248.105C247.603 46.8764 246.257 47.7522 244.602 47.7522C242.456 47.7522 240.821 46.1822 240.821 43.9501C240.821 41.718 242.456 40.1377 244.602 40.1377Z" fill="#362654"/>
<path d="M253.778 46.2682H250.809L250.319 47.6889H248.749L251.429 40.2238H253.17L255.851 47.6889H254.27L253.779 46.2682H253.778ZM253.885 39.8063L252.305 38.9085L250.714 39.8063V38.7167L252.305 37.8511L253.885 38.7167V39.8063ZM252.294 41.9535L251.215 45.0716H253.372L252.293 41.9535H252.294Z" fill="#362654"/>
<path d="M263.342 40.2227V47.6878H261.847L258.461 42.5719V47.6878H256.966V40.2227H258.461L261.847 45.3488V40.2227H263.342Z" fill="#362654"/>
<path d="M268.529 40.1377C270.184 40.1377 271.53 41.0238 272.032 42.5514H270.313C269.96 41.8352 269.32 41.4837 268.519 41.4837C267.216 41.4837 266.287 42.4342 266.287 43.9501C266.287 45.466 267.216 46.418 268.519 46.418C269.32 46.418 269.961 46.065 270.313 45.3385H272.032C271.53 46.8764 270.185 47.7522 268.529 47.7522C266.382 47.7522 264.748 46.1822 264.748 43.9501C264.748 41.718 266.382 40.1377 268.529 40.1377Z" fill="#362654"/>
<path d="M277.809 41.4412H274.978V43.3101H277.488V44.4964H274.978V46.4722H277.809V47.6893H273.484V40.2241H277.809V41.4412Z" fill="#362654"/>
<path d="M282.224 40.2329C284.018 40.2329 284.915 41.2699 284.915 42.5192C284.915 43.4272 284.413 44.3455 283.217 44.6663L285 47.6893H283.271L281.626 44.7849H280.922V47.6893H279.427V40.2344H282.224V40.2329ZM282.171 41.472H280.922V43.6616H282.171C283.004 43.6616 283.378 43.2237 283.378 42.5514C283.378 41.8791 283.004 41.472 282.171 41.472Z" fill="#362654"/>
<path d="M236.261 56.787C236.261 59.0411 234.713 60.5042 232.331 60.5042H229.726V53.0493H232.331C234.712 53.0493 236.261 54.5242 236.261 56.787ZM232.278 59.2329C233.848 59.2329 234.734 58.3366 234.734 56.787C234.734 55.2375 233.848 54.3089 232.278 54.3089H231.221V59.2329H232.278Z" fill="#362654"/>
<path d="M242.001 54.2552H239.17V56.124H241.68V57.3104H239.17V59.2861H242.001V60.5032H237.677V53.0381H242.001V54.2552Z" fill="#362654"/>
<path d="M246.432 53.0483H248.129L250.5 58.5919L252.871 53.0483H254.558V60.5032H253.063V55.6539L251.065 60.5032H249.933L247.926 55.6539V60.5032H246.431V53.0483H246.432Z" fill="#362654"/>
<path d="M260.714 59.084H257.746L257.255 60.5047H255.686L258.365 53.0396H260.107L262.788 60.5047H261.206L260.716 59.084H260.714ZM259.229 54.7692L258.15 57.8874H260.307L259.228 54.7692H259.229Z" fill="#362654"/>
<path d="M263.902 53.0483H265.6L267.97 58.5919L270.341 53.0483H272.03V60.5032H270.535V55.6539L268.537 60.5032H267.405L265.397 55.6539V60.5032H263.902V53.0483Z" fill="#362654"/>
<path d="M278.184 59.084H275.216L274.725 60.5047H273.155L275.835 53.0396H277.576L280.258 60.5047H278.676L278.185 59.084H278.184ZM276.699 54.7692L275.62 57.8874H277.777L276.698 54.7692H276.699Z" fill="#362654"/>
<path d="M215.588 0H215.102V75H215.588V0Z" fill="#D2C5E6"/>
</g>
</g>
<defs>
<clipPath id="clip0_378_177">
<rect width="285" height="75" fill="white"/>
</clipPath>
</defs>
</svg>
