<svg width="160" height="160" viewBox="0 0 160 160" fill="none" xmlns="http://www.w3.org/2000/svg">
<g clip-path="url(#clip0_357_117)">
<path d="M157.581 92.9024C157.581 92.9024 157.569 93.2483 157.552 93.4181C159.007 92.0361 159.923 90.0903 159.948 87.9254C159.997 83.6738 156.591 80.1873 152.339 80.1381C150.784 80.1201 149.332 80.5644 148.112 81.3432L145.278 78.5092H130.013V81.5886H144.002L145.898 83.4846C145.065 84.6985 144.57 86.1642 144.552 87.7471C144.532 89.4873 145.091 91.0994 146.05 92.4C146.275 89.3854 148.809 87.0264 151.874 87.0619C155.063 87.0989 157.618 89.7138 157.581 92.9024Z" fill="#8B2951"/>
<path d="M125.735 143.981C125.735 143.981 125.482 144.218 125.35 144.326C127.355 144.377 129.379 143.649 130.928 142.136C133.969 139.165 134.025 134.29 131.054 131.249C129.967 130.137 128.626 129.424 127.213 129.112L127.213 125.104L116.418 114.31L114.241 116.488L124.133 126.38L124.133 129.061C122.686 129.33 121.299 130.017 120.167 131.123C118.922 132.339 118.178 133.875 117.936 135.472C120.227 133.5 123.687 133.624 125.829 135.816C128.058 138.097 128.015 141.753 125.735 143.981Z" fill="#8B2951"/>
<path d="M66.7935 157.53C66.7935 157.53 66.4477 157.517 66.2779 157.5C67.6543 158.96 69.5966 159.884 71.7614 159.917C76.0127 159.983 79.5123 156.59 79.5779 152.338C79.6019 150.783 79.1633 149.329 78.3891 148.106L81.2341 145.283L81.2931 130.018L78.2136 130.006L78.1596 143.996L76.2563 145.884C75.0457 145.046 73.5818 144.546 71.9991 144.522C70.2589 144.495 68.6447 145.047 67.3404 146.001C70.3541 146.238 72.7033 148.782 72.6559 151.846C72.6067 155.035 69.982 157.58 66.7935 157.53Z" fill="#8B2951"/>
<path d="M15.8439 125.493C15.8439 125.493 15.6085 125.239 15.5009 125.107C15.4422 127.112 16.1629 129.139 17.6703 130.693C20.6307 133.745 25.5046 133.819 28.5565 130.858C29.6728 129.776 30.3907 128.437 30.7074 127.025L34.7154 127.039L45.5487 116.285L43.3791 114.099L33.4511 123.955L30.7698 123.946C30.5059 122.497 29.8243 121.108 28.7222 119.972C27.5104 118.723 25.978 117.973 24.3812 117.725C26.3453 120.023 26.2086 123.483 24.0086 125.617C21.7197 127.837 18.0642 127.782 15.8439 125.493Z" fill="#8B2951"/>
<path d="M2.52095 66.4899C2.52095 66.4899 2.53533 66.1441 2.55365 65.9744C1.08831 67.3452 0.156999 69.2839 0.115215 71.4485C0.0331571 75.6996 3.41271 79.2122 7.66382 79.2943C9.21867 79.3243 10.6747 78.8912 11.9003 78.1218L14.7124 80.9777L29.9771 81.0956L30.0009 78.0162L16.0117 77.9082L14.1304 75.9976C14.973 74.7902 15.479 73.3283 15.5096 71.7457C15.5432 70.0056 14.9967 68.3893 14.048 67.0813C13.7996 70.0941 11.2468 72.4334 8.1824 72.3743C4.99416 72.3127 2.4594 69.6782 2.52095 66.4899Z" fill="#8B2951"/>
<path d="M34.7166 15.7025C34.7166 15.7025 34.9712 15.468 35.1041 15.3609C33.0986 15.2949 31.0696 16.0082 29.5101 17.51C26.4474 20.4593 26.3555 25.3329 29.3049 28.3956C30.3836 29.5157 31.7197 30.2385 33.1305 30.5604L33.1014 34.5683L43.8168 45.4405L46.0101 43.2789L36.1901 33.3151L36.2095 30.6339C37.659 30.3753 39.0502 29.6988 40.1904 28.6007C41.444 27.3935 42.1998 25.8638 42.4532 24.2679C40.148 26.2237 36.6888 26.0744 34.5627 23.8667C32.3508 21.5697 32.4197 17.9144 34.7166 15.7025Z" fill="#8B2951"/>
<path d="M93.8121 2.57367C93.8121 2.57367 94.1579 2.58939 94.3275 2.60835C92.9624 1.13774 91.0273 0.198952 88.8628 0.148813C84.6122 0.0503468 81.0864 3.41631 80.988 7.66708C80.952 9.2218 81.3794 10.6795 82.1441 11.908L79.2774 14.7091L79.1006 29.9732L82.1798 30.0089L82.3418 16.0202L84.2597 14.1463C85.4638 14.9936 86.9237 15.5053 88.5062 15.5419C90.2461 15.5822 91.8646 15.042 93.1763 14.0983C90.1644 13.8383 87.835 11.2765 87.906 8.21237C87.9798 5.02439 90.6241 2.49982 93.8121 2.57367Z" fill="#8B2951"/>
<path d="M144.455 34.9437C144.455 34.9437 144.688 35.1991 144.795 35.3324C144.868 33.3272 144.162 31.2956 142.666 29.7306C139.728 26.6573 134.855 26.5477 131.781 29.4859C130.657 30.5605 129.93 31.8941 129.603 33.3037L125.595 33.26L114.684 43.9358L116.838 46.1369L126.837 36.3532L129.518 36.3824C129.771 37.8328 130.443 39.2264 131.537 40.3706C132.739 41.6286 134.266 42.39 135.861 42.6491C133.914 40.3369 134.076 36.8782 136.291 34.7602C138.596 32.5566 142.251 32.6387 144.455 34.9437Z" fill="#8B2951"/>
<path d="M136 80C136 110.928 110.928 136 80 136C49.0721 136 24 110.928 24 80C24 49.0721 49.0721 24 80 24C110.928 24 136 49.0721 136 80Z" fill="#C33F7C"/>
<circle cx="80" cy="80" r="24" fill="#E27FB4"/>
</g>
<defs>
<clipPath id="clip0_357_117">
<rect width="160" height="160" fill="white"/>
</clipPath>
</defs>
</svg>
