<svg width="186" height="61" viewBox="0 0 186 61" fill="none" xmlns="http://www.w3.org/2000/svg">
<g id="outubro-rosa-logo-light" clip-path="url(#clip0_316_508)">
<g id="GRUPO">
<g id="ROSA">
<path id="Vector" d="M43.2226 47.7759C44.959 45.5212 45.8293 42.9756 45.8293 40.1477C45.8293 35.6002 44.1563 31.9799 40.8146 29.2868C37.4729 26.5938 32.1371 25.2451 24.8115 25.2451H-6.10352e-05V60.6091H21.267V55.0502H22.0359L24.051 60.6091H45.5716L41.2582 49.8326C41.989 49.1962 42.6481 48.5135 43.2142 47.7759H43.2226ZM24.0806 41.5089C24.4017 41.7112 24.5622 42.0315 24.5622 42.4699C24.5622 42.7733 24.4862 43.0177 24.3341 43.2032C24.182 43.3886 23.9708 43.5235 23.7004 43.6078C23.43 43.6921 23.1258 43.7342 22.7879 43.7342H21.267V41.2097H22.7879C23.3286 41.2097 23.7553 41.3109 24.0806 41.5132V41.5089Z" fill="#FFD4D7"/>
<path id="Vector_2" d="M57.4007 58.7631C53.9407 57.1279 51.2495 54.9237 49.3231 52.1463C47.3966 49.369 46.4376 46.2966 46.4376 42.925C46.4376 39.5534 47.4008 36.4852 49.3231 33.7036C51.2453 30.922 53.9407 28.7178 57.4007 27.0868C60.8607 25.4516 64.8023 24.6382 69.2255 24.6382C73.6488 24.6382 77.5904 25.4558 81.0504 27.0868C84.5104 28.7221 87.2016 30.9262 89.128 33.7036C91.0545 36.481 92.0135 39.5576 92.0135 42.925C92.0135 46.2924 91.0502 49.3648 89.128 52.1463C87.2058 54.9279 84.5104 57.1321 81.0504 58.7631C77.5904 60.3984 73.6488 61.2118 69.2255 61.2118C64.8023 61.2118 60.8607 60.3942 57.4007 58.7631ZM69.986 44.164C70.2226 44.046 70.4085 43.8775 70.5436 43.6583C70.6788 43.4392 70.7464 43.1947 70.7464 42.925C70.7464 42.6553 70.6788 42.4108 70.5436 42.1917C70.4085 41.9725 70.2226 41.8039 69.986 41.6859C69.7494 41.5679 69.4959 41.5089 69.2255 41.5089C68.9552 41.5089 68.7017 41.5679 68.4651 41.6859C68.2285 41.8039 68.0426 41.9725 67.9075 42.1917C67.7723 42.4108 67.7047 42.6553 67.7047 42.925C67.7047 43.1947 67.7723 43.4392 67.9075 43.6583C68.0426 43.8775 68.2285 44.046 68.4651 44.164C68.7017 44.2821 68.9552 44.3411 69.2255 44.3411C69.4959 44.3411 69.7494 44.2821 69.986 44.164Z" fill="#FFD4D7"/>
<path id="Vector_3" d="M101.126 60.3268C98.0548 59.8042 95.4862 59.1551 93.4288 58.3797V45.6476H93.8343C95.4862 46.6591 97.6239 47.4388 100.239 47.9951C102.854 48.5514 105.211 48.8296 107.303 48.8296C107.607 48.8296 107.869 48.8127 108.088 48.779C108.308 48.7453 108.469 48.6863 108.57 48.602C108.671 48.5177 108.722 48.4081 108.722 48.2733C108.722 48.1384 108.68 48.0372 108.595 47.9698C108.511 47.9024 108.359 47.8434 108.139 47.7928C107.919 47.7422 107.658 47.7169 107.353 47.7169C102.322 47.5821 98.5744 46.579 96.1115 44.712C93.6485 42.8407 92.4149 40.2572 92.4149 36.9573C92.4149 34.4665 93.1922 32.3002 94.7427 30.4669C96.2931 28.6336 98.5575 27.2175 101.527 26.2229C104.497 25.2283 108.059 24.731 112.212 24.731C115.452 24.731 118.371 24.9501 120.974 25.3884C123.572 25.8267 125.819 26.3999 127.708 27.1079V39.6883H127.302C126.086 38.9802 124.265 38.3565 121.831 37.817C119.402 37.2776 117.07 37.0078 114.844 37.0078C114.573 37.0078 114.354 37.0331 114.185 37.0837C114.016 37.1343 113.889 37.1933 113.804 37.2607C113.72 37.3282 113.678 37.4293 113.678 37.5642C113.678 37.699 113.72 37.8086 113.804 37.8929C113.889 37.9772 114.024 38.0446 114.21 38.0952C114.396 38.1458 114.607 38.1711 114.844 38.1711C120.247 38.4745 124.121 39.5197 126.466 41.3024C128.81 43.0894 129.985 45.6645 129.985 49.0319C129.985 51.5269 129.25 53.6805 127.784 55.4969C126.318 57.3134 124.146 58.7042 121.278 59.6651C118.409 60.626 114.928 61.1065 110.847 61.1065C107.438 61.1065 104.197 60.8452 101.126 60.3226V60.3268Z" fill="#FFD4D7"/>
<path id="Vector_4" d="M163.06 60.6048H186L172.832 25.2407H141.028L127.86 60.6048H150.8L151.894 56.8665H161.966L163.06 60.6048ZM155.232 45.4493L156.326 41.7111H157.542L158.637 45.4493H155.236H155.232Z" fill="#FFD4D7"/>
</g>
<g id="OUTUBRO">
<path id="Vector_5" d="M44.8999 0.0209961C50.4807 0.0209961 54.1899 3.91521 54.1899 9.72703C54.1899 15.5389 50.4807 19.4331 44.8999 19.4331C39.3191 19.4331 35.5549 15.5389 35.5549 9.72703C35.5549 3.91521 39.2641 0.0209961 44.8999 0.0209961ZM44.8999 16.5293C48.8035 16.5293 51.3847 13.7856 51.3847 9.72703C51.3847 5.66845 48.7992 2.9248 44.8999 2.9248C41.0005 2.9248 38.3558 5.66845 38.3558 9.72703C38.3558 13.7856 40.9413 16.5293 44.8999 16.5293Z" fill="#FFD4D7"/>
<path id="Vector_6" d="M59.1919 11.6784C59.1919 17.8738 67.3836 18.0676 67.3836 11.6784V0.0800781H70.738V12.0072C70.738 21.6036 55.8417 21.7427 55.8417 12.0072V0.0800781H59.1961V11.6784H59.1919Z" fill="#FFD4D7"/>
<path id="Vector_7" d="M72.3011 0.0507812H84.9456V2.52049H80.328L80.3533 19.2184H76.944V2.52049H72.2969V0.0507812H72.3011Z" fill="#FFD4D7"/>
<path id="Vector_8" d="M90.0321 11.6784C90.0321 17.8738 98.2238 18.0676 98.2238 11.6784V0.0800781H101.578V12.0072C101.578 21.6036 86.6819 21.7427 86.6819 12.0072V0.0800781H90.0363V11.6784H90.0321Z" fill="#FFD4D7"/>
<path id="Vector_9" d="M116.2 13.8445C116.2 17.5996 113.204 19.2475 109.715 19.218H103.669V0.0208912H109.221C112.71 -0.198264 115.765 1.14617 115.765 4.62736C115.765 8.10855 112.934 8.87559 110.733 8.87559V8.93038C112.934 8.93038 116.204 9.89129 116.204 13.8403L116.2 13.8445ZM109.216 7.69974C111.058 7.69974 112.376 6.87791 112.376 4.93081C112.376 3.12278 111.058 2.4611 109.216 2.4906H107.045V7.69974H109.216ZM109.74 16.7483C111.662 16.7736 112.82 15.543 112.82 13.4315C112.82 11.32 111.063 10.14 109.221 10.1695H107.049V16.7525H109.744L109.74 16.7483Z" fill="#FFD4D7"/>
<path id="Vector_10" d="M121.421 19.2181H118.067V0.0209961H123.618C127.028 0.0209961 130.162 1.06198 130.162 4.93091C130.162 7.80943 128.405 9.51209 125.625 10.0305L130.133 19.2181H126.698L122.275 10.1948H121.451L121.421 19.2181ZM123.623 7.59027C125.464 7.59027 126.783 7.17725 126.783 5.09528C126.783 3.0133 125.464 2.60028 123.623 2.62557H121.451V7.59027H123.623Z" fill="#FFD4D7"/>
<path id="Vector_11" d="M140.471 0.0209961C146.051 0.0209961 149.761 3.91521 149.761 9.72703C149.761 15.5389 146.051 19.4331 140.471 19.4331C134.89 19.4331 131.126 15.5389 131.126 9.72703C131.126 3.91521 134.835 0.0209961 140.471 0.0209961ZM140.471 16.5293C144.374 16.5293 146.955 13.7856 146.955 9.72703C146.955 5.66845 144.37 2.9248 140.471 2.9248C136.571 2.9248 133.927 5.66845 133.927 9.72703C133.927 13.7856 136.512 16.5293 140.471 16.5293Z" fill="#FFD4D7"/>
</g>
</g>
</g>
<defs>
<clipPath id="clip0_316_508">
<rect width="186" height="61" fill="white"/>
</clipPath>
</defs>
</svg>
